<svg width="1464" height="1080" viewBox="0 0 1464 1080" fill="none" xmlns="http://www.w3.org/2000/svg">
<rect width="1464" height="1080" fill="#25CE8A"/>
<path d="M1112.21 921.7C1112.21 923.428 1112.43 925.14 1112.88 926.836C1113.33 928.5 1114.03 930.004 1114.99 931.348C1115.95 932.692 1117.18 933.78 1118.69 934.612C1120.19 935.412 1121.98 935.812 1124.06 935.812C1126.14 935.812 1127.93 935.412 1129.44 934.612C1130.94 933.78 1132.17 932.692 1133.13 931.348C1134.09 930.004 1134.8 928.5 1135.25 926.836C1135.69 925.14 1135.92 923.428 1135.92 921.7C1135.92 919.972 1135.69 918.276 1135.25 916.612C1134.8 914.916 1134.09 913.396 1133.13 912.052C1132.17 910.708 1130.94 909.636 1129.44 908.836C1127.93 908.004 1126.14 907.588 1124.06 907.588C1121.98 907.588 1120.19 908.004 1118.69 908.836C1117.18 909.636 1115.95 910.708 1114.99 912.052C1114.03 913.396 1113.33 914.916 1112.88 916.612C1112.43 918.276 1112.21 919.972 1112.21 921.7ZM1107.65 921.7C1107.65 919.364 1107.98 917.124 1108.65 914.98C1109.36 912.804 1110.4 910.884 1111.77 909.22C1113.15 907.556 1114.86 906.228 1116.91 905.236C1118.96 904.244 1121.34 903.748 1124.06 903.748C1126.78 903.748 1129.17 904.244 1131.21 905.236C1133.26 906.228 1134.97 907.556 1136.35 909.22C1137.73 910.884 1138.75 912.804 1139.42 914.98C1140.13 917.124 1140.48 919.364 1140.48 921.7C1140.48 924.036 1140.13 926.292 1139.42 928.468C1138.75 930.612 1137.73 932.516 1136.35 934.18C1134.97 935.844 1133.26 937.172 1131.21 938.164C1129.17 939.124 1126.78 939.604 1124.06 939.604C1121.34 939.604 1118.96 939.124 1116.91 938.164C1114.86 937.172 1113.15 935.844 1111.77 934.18C1110.4 932.516 1109.36 930.612 1108.65 928.468C1107.98 926.292 1107.65 924.036 1107.65 921.7ZM1145.36 914.02H1149.2V917.956H1149.3C1150.99 914.948 1153.68 913.444 1157.36 913.444C1158.99 913.444 1160.35 913.668 1161.44 914.116C1162.53 914.564 1163.41 915.188 1164.08 915.988C1164.75 916.788 1165.22 917.748 1165.47 918.868C1165.76 919.956 1165.91 921.172 1165.91 922.516V938.836H1161.83V922.036C1161.83 920.5 1161.38 919.284 1160.48 918.388C1159.59 917.492 1158.35 917.044 1156.79 917.044C1155.54 917.044 1154.45 917.236 1153.52 917.62C1152.63 918.004 1151.87 918.548 1151.27 919.252C1150.66 919.956 1150.19 920.788 1149.87 921.748C1149.59 922.676 1149.44 923.7 1149.44 924.82V938.836H1145.36V914.02ZM1186.16 904.564H1192.4L1203.2 933.364L1214.05 904.564H1220.29V938.836H1215.97V910.324H1215.87L1205.17 938.836H1201.28L1190.58 910.324H1190.48V938.836H1186.16V904.564ZM1236.95 942.148C1236.47 943.364 1235.99 944.388 1235.51 945.22C1235.06 946.052 1234.55 946.724 1233.97 947.236C1233.43 947.78 1232.81 948.164 1232.1 948.388C1231.43 948.644 1230.65 948.772 1229.75 948.772C1229.27 948.772 1228.79 948.74 1228.31 948.676C1227.83 948.612 1227.37 948.5 1226.92 948.34V944.596C1227.27 944.756 1227.67 944.884 1228.12 944.98C1228.6 945.108 1229 945.172 1229.32 945.172C1230.15 945.172 1230.84 944.964 1231.38 944.548C1231.96 944.164 1232.39 943.604 1232.68 942.868L1234.36 938.692L1224.52 914.02H1229.13L1236.37 934.324H1236.47L1243.43 914.02H1247.75L1236.95 942.148ZM1296.2 938.836H1291.44L1283.62 910.036H1283.52L1275.6 938.836H1270.85L1262.07 904.564H1266.72L1273.44 933.076H1273.54L1281.22 904.564H1286.16L1293.75 933.076H1293.84L1300.8 904.564H1305.36L1296.2 938.836ZM1329.21 938.74C1328.5 939.156 1327.53 939.364 1326.28 939.364C1325.22 939.364 1324.37 939.076 1323.73 938.5C1323.13 937.892 1322.82 936.916 1322.82 935.572C1321.7 936.916 1320.39 937.892 1318.89 938.5C1317.41 939.076 1315.81 939.364 1314.09 939.364C1312.97 939.364 1311.89 939.236 1310.87 938.98C1309.88 938.724 1309.01 938.324 1308.28 937.78C1307.54 937.236 1306.95 936.532 1306.5 935.668C1306.09 934.772 1305.88 933.7 1305.88 932.452C1305.88 931.044 1306.12 929.892 1306.6 928.996C1307.08 928.1 1307.7 927.38 1308.47 926.836C1309.27 926.26 1310.17 925.828 1311.16 925.54C1312.18 925.252 1313.22 925.012 1314.28 924.82C1315.4 924.596 1316.45 924.436 1317.45 924.34C1318.47 924.212 1319.37 924.052 1320.13 923.86C1320.9 923.636 1321.51 923.332 1321.96 922.948C1322.41 922.532 1322.63 921.94 1322.63 921.172C1322.63 920.276 1322.45 919.556 1322.1 919.012C1321.78 918.468 1321.35 918.052 1320.81 917.764C1320.29 917.476 1319.7 917.284 1319.03 917.188C1318.39 917.092 1317.75 917.044 1317.11 917.044C1315.38 917.044 1313.94 917.38 1312.79 918.052C1311.64 918.692 1311.01 919.924 1310.92 921.748H1306.84C1306.9 920.212 1307.22 918.916 1307.8 917.86C1308.37 916.804 1309.14 915.956 1310.1 915.316C1311.06 914.644 1312.15 914.164 1313.37 913.876C1314.61 913.588 1315.94 913.444 1317.35 913.444C1318.47 913.444 1319.57 913.524 1320.66 913.684C1321.78 913.844 1322.79 914.18 1323.69 914.692C1324.58 915.172 1325.3 915.86 1325.85 916.756C1326.39 917.652 1326.66 918.82 1326.66 920.26V933.028C1326.66 933.988 1326.71 934.692 1326.81 935.14C1326.93 935.588 1327.32 935.812 1327.96 935.812C1328.31 935.812 1328.73 935.732 1329.21 935.572V938.74ZM1322.58 926.02C1322.07 926.404 1321.4 926.692 1320.57 926.884C1319.73 927.044 1318.85 927.188 1317.93 927.316C1317.03 927.412 1316.12 927.54 1315.19 927.7C1314.26 927.828 1313.43 928.052 1312.69 928.372C1311.96 928.692 1311.35 929.156 1310.87 929.764C1310.42 930.34 1310.2 931.14 1310.2 932.164C1310.2 932.836 1310.33 933.412 1310.58 933.892C1310.87 934.34 1311.22 934.708 1311.64 934.996C1312.09 935.284 1312.6 935.492 1313.17 935.62C1313.75 935.748 1314.36 935.812 1315 935.812C1316.34 935.812 1317.49 935.636 1318.45 935.284C1319.41 934.9 1320.2 934.436 1320.81 933.892C1321.41 933.316 1321.86 932.708 1322.15 932.068C1322.44 931.396 1322.58 930.772 1322.58 930.196V926.02ZM1342.75 942.148C1342.27 943.364 1341.79 944.388 1341.31 945.22C1340.86 946.052 1340.35 946.724 1339.77 947.236C1339.23 947.78 1338.6 948.164 1337.9 948.388C1337.23 948.644 1336.44 948.772 1335.55 948.772C1335.07 948.772 1334.59 948.74 1334.11 948.676C1333.63 948.612 1333.16 948.5 1332.71 948.34V944.596C1333.07 944.756 1333.47 944.884 1333.91 944.98C1334.39 945.108 1334.79 945.172 1335.11 945.172C1335.95 945.172 1336.63 944.964 1337.18 944.548C1337.75 944.164 1338.19 943.604 1338.47 942.868L1340.15 938.692L1330.31 914.02H1334.92L1342.17 934.324H1342.27L1349.23 914.02H1353.55L1342.75 942.148ZM1357.48 933.508H1362.81V938.836H1357.48V933.508ZM1362.43 915.124L1361.23 930.052H1359.07L1357.87 915.124V904.564H1362.43V915.124Z" fill="#ECFFF0"/>
<rect x="1155.09" y="969.369" width="50" height="15.5325" rx="7.76627" transform="rotate(180 1155.09 969.369)" fill="#16188E"/>
<rect x="1208.09" y="969.369" width="50" height="15.5325" rx="7.76627" transform="rotate(180 1208.09 969.369)" fill="#0CBBFF"/>
<rect x="1261.09" y="969.369" width="50" height="15.5325" rx="7.76627" transform="rotate(180 1261.09 969.369)" fill="#2FDD46"/>
<rect x="1314.09" y="969.369" width="50" height="15.5325" rx="7.76627" transform="rotate(180 1314.09 969.369)" fill="#FFEF11"/>
<rect x="1367.09" y="969.369" width="50" height="15.5325" rx="7.76627" transform="rotate(180 1367.09 969.369)" fill="#FF2E2E"/>
</svg>
