<svg width="1464" height="1080" viewBox="0 0 1464 1080" fill="none" xmlns="http://www.w3.org/2000/svg">
<rect width="1464" height="1080" fill="#25CE8A"/>
<rect width="30" height="30" rx="15" transform="matrix(-4.37114e-08 1 1 4.37114e-08 84 56)" fill="#FFEF11"/>
<rect width="30" height="30" rx="15" transform="matrix(-4.37114e-08 1 1 4.37114e-08 717 56)" fill="#2EFF4A"/>
<rect width="30" height="30" rx="15" transform="matrix(-4.37114e-08 1 1 4.37114e-08 1350 56)" fill="#16188E"/>
<rect width="30" height="30" rx="15" transform="matrix(-4.37114e-08 1 1 4.37114e-08 84 994)" fill="#FF2E2E"/>
<rect width="30" height="30" rx="15" transform="matrix(-4.37114e-08 1 1 4.37114e-08 1350 994)" fill="#9CE4FF"/>
<path d="M262.238 1010.42H268.046L265.19 1002.43H265.142L262.238 1010.42ZM263.942 1000.36H266.462L273.158 1017.5H270.638L268.766 1012.34H261.518L259.598 1017.5H257.27L263.942 1000.36ZM274.513 1005.09H276.433V1007.06H276.481C277.329 1005.56 278.673 1004.8 280.513 1004.8C281.329 1004.8 282.009 1004.92 282.553 1005.14C283.097 1005.36 283.537 1005.68 283.873 1006.08C284.209 1006.48 284.441 1006.96 284.569 1007.52C284.713 1008.06 284.785 1008.67 284.785 1009.34V1017.5H282.745V1009.1C282.745 1008.33 282.521 1007.72 282.073 1007.28C281.625 1006.83 281.009 1006.6 280.225 1006.6C279.601 1006.6 279.057 1006.7 278.593 1006.89C278.145 1007.08 277.769 1007.36 277.465 1007.71C277.161 1008.06 276.929 1008.48 276.769 1008.96C276.625 1009.42 276.553 1009.93 276.553 1010.49V1017.5H274.513V1005.09ZM296.688 1002.86H294.648V1000.36H296.688V1002.86ZM294.648 1005.09H296.688V1017.5H294.648V1005.09ZM299.849 1005.09H301.769V1007.06H301.817C302.665 1005.56 304.009 1004.8 305.849 1004.8C306.665 1004.8 307.345 1004.92 307.889 1005.14C308.433 1005.36 308.873 1005.68 309.209 1006.08C309.545 1006.48 309.777 1006.96 309.905 1007.52C310.049 1008.06 310.121 1008.67 310.121 1009.34V1017.5H308.081V1009.1C308.081 1008.33 307.857 1007.72 307.409 1007.28C306.961 1006.83 306.345 1006.6 305.561 1006.6C304.937 1006.6 304.393 1006.7 303.929 1006.89C303.481 1007.08 303.105 1007.36 302.801 1007.71C302.497 1008.06 302.265 1008.48 302.105 1008.96C301.961 1009.42 301.889 1009.93 301.889 1010.49V1017.5H299.849V1005.09ZM316.016 1005.09H318.488V1006.89H316.016V1014.6C316.016 1014.84 316.032 1015.03 316.064 1015.17C316.112 1015.32 316.192 1015.43 316.304 1015.51C316.416 1015.59 316.568 1015.64 316.76 1015.68C316.968 1015.69 317.232 1015.7 317.552 1015.7H318.488V1017.5H316.928C316.4 1017.5 315.944 1017.47 315.56 1017.4C315.192 1017.32 314.888 1017.19 314.648 1017C314.424 1016.8 314.256 1016.53 314.144 1016.18C314.032 1015.83 313.976 1015.36 313.976 1014.79V1006.89H311.864V1005.09H313.976V1001.37H316.016V1005.09ZM329.371 1010.11C329.339 1009.63 329.227 1009.17 329.035 1008.74C328.859 1008.31 328.611 1007.94 328.291 1007.64C327.987 1007.32 327.619 1007.07 327.187 1006.89C326.771 1006.7 326.307 1006.6 325.795 1006.6C325.267 1006.6 324.787 1006.7 324.355 1006.89C323.939 1007.07 323.579 1007.32 323.275 1007.64C322.971 1007.96 322.731 1008.33 322.555 1008.76C322.379 1009.18 322.275 1009.63 322.243 1010.11H329.371ZM331.339 1013.56C331.067 1014.96 330.467 1016 329.539 1016.71C328.611 1017.41 327.443 1017.76 326.035 1017.76C325.043 1017.76 324.179 1017.6 323.443 1017.28C322.723 1016.96 322.115 1016.52 321.619 1015.94C321.123 1015.36 320.747 1014.68 320.491 1013.88C320.251 1013.08 320.115 1012.2 320.083 1011.26C320.083 1010.32 320.227 1009.45 320.515 1008.67C320.803 1007.88 321.203 1007.2 321.715 1006.63C322.243 1006.05 322.859 1005.6 323.563 1005.28C324.283 1004.96 325.067 1004.8 325.915 1004.8C327.019 1004.8 327.931 1005.04 328.651 1005.5C329.387 1005.95 329.971 1006.52 330.403 1007.23C330.851 1007.93 331.155 1008.7 331.315 1009.53C331.491 1010.36 331.563 1011.16 331.531 1011.91H322.243C322.227 1012.45 322.291 1012.97 322.435 1013.47C322.579 1013.95 322.811 1014.38 323.131 1014.76C323.451 1015.13 323.859 1015.43 324.355 1015.65C324.851 1015.88 325.435 1015.99 326.107 1015.99C326.971 1015.99 327.675 1015.79 328.219 1015.39C328.779 1014.99 329.147 1014.38 329.323 1013.56H331.339ZM333.573 1005.09H335.493V1007.71H335.541C336.037 1006.7 336.645 1005.96 337.365 1005.48C338.085 1005 338.997 1004.77 340.101 1004.8V1006.96C339.285 1006.96 338.589 1007.08 338.013 1007.3C337.437 1007.52 336.973 1007.85 336.621 1008.28C336.269 1008.72 336.013 1009.24 335.853 1009.87C335.693 1010.48 335.613 1011.18 335.613 1011.98V1017.5H333.573V1005.09ZM342.478 1006.89H340.39V1005.09H342.478V1003.24C342.478 1002.24 342.766 1001.48 343.342 1000.96C343.934 1000.44 344.79 1000.17 345.91 1000.17C346.102 1000.17 346.318 1000.19 346.558 1000.22C346.814 1000.25 347.038 1000.3 347.23 1000.36V1002.14C347.054 1002.08 346.862 1002.04 346.654 1002.02C346.446 1001.99 346.254 1001.97 346.078 1001.97C345.582 1001.97 345.198 1002.07 344.926 1002.26C344.654 1002.45 344.518 1002.82 344.518 1003.36V1005.09H346.918V1006.89H344.518V1017.5H342.478V1006.89ZM359.731 1017.45C359.379 1017.66 358.891 1017.76 358.267 1017.76C357.739 1017.76 357.315 1017.62 356.995 1017.33C356.691 1017.03 356.539 1016.54 356.539 1015.87C355.979 1016.54 355.323 1017.03 354.571 1017.33C353.835 1017.62 353.035 1017.76 352.171 1017.76C351.611 1017.76 351.075 1017.7 350.563 1017.57C350.067 1017.44 349.635 1017.24 349.267 1016.97C348.899 1016.7 348.603 1016.35 348.379 1015.92C348.171 1015.47 348.067 1014.93 348.067 1014.31C348.067 1013.6 348.187 1013.03 348.427 1012.58C348.667 1012.13 348.979 1011.77 349.363 1011.5C349.763 1011.21 350.211 1011 350.707 1010.85C351.219 1010.71 351.739 1010.59 352.267 1010.49C352.827 1010.38 353.355 1010.3 353.851 1010.25C354.363 1010.19 354.811 1010.11 355.195 1010.01C355.579 1009.9 355.883 1009.75 356.107 1009.56C356.331 1009.35 356.443 1009.05 356.443 1008.67C356.443 1008.22 356.355 1007.86 356.179 1007.59C356.019 1007.32 355.803 1007.11 355.531 1006.96C355.275 1006.82 354.979 1006.72 354.643 1006.68C354.323 1006.63 354.003 1006.6 353.683 1006.6C352.819 1006.6 352.099 1006.77 351.523 1007.11C350.947 1007.43 350.635 1008.04 350.587 1008.96H348.547C348.579 1008.19 348.739 1007.54 349.027 1007.01C349.315 1006.48 349.699 1006.06 350.179 1005.74C350.659 1005.4 351.203 1005.16 351.811 1005.02C352.435 1004.88 353.099 1004.8 353.803 1004.8C354.363 1004.8 354.915 1004.84 355.459 1004.92C356.019 1005 356.523 1005.17 356.971 1005.43C357.419 1005.67 357.779 1006.01 358.051 1006.46C358.323 1006.91 358.459 1007.49 358.459 1008.21V1014.6C358.459 1015.08 358.483 1015.43 358.531 1015.65C358.595 1015.88 358.787 1015.99 359.107 1015.99C359.283 1015.99 359.491 1015.95 359.731 1015.87V1017.45ZM356.419 1011.09C356.163 1011.28 355.827 1011.43 355.411 1011.52C354.995 1011.6 354.555 1011.68 354.091 1011.74C353.643 1011.79 353.187 1011.85 352.723 1011.93C352.259 1012 351.843 1012.11 351.475 1012.27C351.107 1012.43 350.803 1012.66 350.563 1012.96C350.339 1013.25 350.227 1013.65 350.227 1014.16C350.227 1014.5 350.291 1014.79 350.419 1015.03C350.563 1015.25 350.739 1015.44 350.947 1015.58C351.171 1015.72 351.427 1015.83 351.715 1015.89C352.003 1015.96 352.307 1015.99 352.627 1015.99C353.299 1015.99 353.875 1015.9 354.355 1015.72C354.835 1015.53 355.227 1015.3 355.531 1015.03C355.835 1014.74 356.059 1014.44 356.203 1014.12C356.347 1013.78 356.419 1013.47 356.419 1013.18V1011.09ZM370.054 1009.08C369.894 1008.29 369.558 1007.68 369.046 1007.25C368.534 1006.82 367.846 1006.6 366.982 1006.6C366.246 1006.6 365.63 1006.74 365.134 1007.01C364.638 1007.28 364.238 1007.64 363.934 1008.09C363.646 1008.54 363.438 1009.06 363.31 1009.65C363.182 1010.23 363.118 1010.83 363.118 1011.45C363.118 1012.03 363.182 1012.59 363.31 1013.13C363.454 1013.68 363.67 1014.16 363.958 1014.6C364.246 1015.01 364.622 1015.35 365.086 1015.6C365.55 1015.86 366.102 1015.99 366.742 1015.99C367.75 1015.99 368.534 1015.72 369.094 1015.2C369.67 1014.67 370.022 1013.92 370.15 1012.96H372.238C372.014 1014.5 371.438 1015.68 370.51 1016.52C369.598 1017.35 368.35 1017.76 366.766 1017.76C365.822 1017.76 364.982 1017.61 364.246 1017.31C363.526 1017 362.918 1016.57 362.422 1016.01C361.942 1015.45 361.574 1014.79 361.318 1014.02C361.078 1013.24 360.958 1012.38 360.958 1011.45C360.958 1010.52 361.078 1009.66 361.318 1008.86C361.558 1008.04 361.918 1007.34 362.398 1006.75C362.894 1006.14 363.51 1005.67 364.246 1005.33C364.982 1004.98 365.838 1004.8 366.814 1004.8C367.518 1004.8 368.174 1004.89 368.782 1005.07C369.406 1005.23 369.95 1005.48 370.414 1005.84C370.894 1006.19 371.286 1006.64 371.59 1007.18C371.894 1007.71 372.086 1008.34 372.166 1009.08H370.054ZM383.136 1010.11C383.104 1009.63 382.992 1009.17 382.8 1008.74C382.624 1008.31 382.376 1007.94 382.056 1007.64C381.752 1007.32 381.384 1007.07 380.952 1006.89C380.536 1006.7 380.072 1006.6 379.56 1006.6C379.032 1006.6 378.552 1006.7 378.12 1006.89C377.704 1007.07 377.344 1007.32 377.04 1007.64C376.736 1007.96 376.496 1008.33 376.32 1008.76C376.144 1009.18 376.04 1009.63 376.008 1010.11H383.136ZM385.104 1013.56C384.832 1014.96 384.232 1016 383.304 1016.71C382.376 1017.41 381.208 1017.76 379.8 1017.76C378.808 1017.76 377.944 1017.6 377.208 1017.28C376.488 1016.96 375.88 1016.52 375.384 1015.94C374.888 1015.36 374.512 1014.68 374.256 1013.88C374.016 1013.08 373.88 1012.2 373.848 1011.26C373.848 1010.32 373.992 1009.45 374.28 1008.67C374.568 1007.88 374.968 1007.2 375.48 1006.63C376.008 1006.05 376.624 1005.6 377.328 1005.28C378.048 1004.96 378.832 1004.8 379.68 1004.8C380.784 1004.8 381.696 1005.04 382.416 1005.5C383.152 1005.95 383.736 1006.52 384.168 1007.23C384.616 1007.93 384.92 1008.7 385.08 1009.53C385.256 1010.36 385.328 1011.16 385.296 1011.91H376.008C375.992 1012.45 376.056 1012.97 376.2 1013.47C376.344 1013.95 376.576 1014.38 376.896 1014.76C377.216 1015.13 377.624 1015.43 378.12 1015.65C378.616 1015.88 379.2 1015.99 379.872 1015.99C380.736 1015.99 381.44 1015.79 381.984 1015.39C382.544 1014.99 382.912 1014.38 383.088 1013.56H385.104ZM395.339 1013.59C395.355 1014.04 395.459 1014.42 395.651 1014.74C395.843 1015.04 396.091 1015.29 396.395 1015.48C396.715 1015.66 397.067 1015.79 397.451 1015.87C397.851 1015.95 398.259 1015.99 398.675 1015.99C398.995 1015.99 399.331 1015.96 399.683 1015.92C400.035 1015.87 400.355 1015.78 400.643 1015.65C400.947 1015.52 401.195 1015.34 401.387 1015.1C401.579 1014.84 401.675 1014.52 401.675 1014.14C401.675 1013.61 401.475 1013.21 401.075 1012.94C400.675 1012.67 400.171 1012.45 399.563 1012.29C398.971 1012.12 398.323 1011.96 397.619 1011.84C396.915 1011.69 396.259 1011.5 395.651 1011.26C395.059 1011 394.563 1010.65 394.163 1010.2C393.763 1009.76 393.563 1009.13 393.563 1008.33C393.563 1007.71 393.699 1007.17 393.971 1006.72C394.259 1006.28 394.619 1005.92 395.051 1005.64C395.499 1005.36 395.995 1005.15 396.539 1005.02C397.099 1004.88 397.651 1004.8 398.195 1004.8C398.899 1004.8 399.547 1004.87 400.139 1005C400.731 1005.11 401.251 1005.32 401.699 1005.62C402.163 1005.91 402.531 1006.31 402.803 1006.82C403.075 1007.32 403.235 1007.94 403.283 1008.69H401.243C401.211 1008.29 401.107 1007.96 400.931 1007.71C400.755 1007.44 400.531 1007.22 400.259 1007.06C399.987 1006.9 399.683 1006.79 399.347 1006.72C399.027 1006.64 398.699 1006.6 398.363 1006.6C398.059 1006.6 397.747 1006.63 397.427 1006.68C397.123 1006.72 396.843 1006.81 396.587 1006.94C396.331 1007.05 396.123 1007.21 395.963 1007.42C395.803 1007.61 395.723 1007.87 395.723 1008.19C395.723 1008.54 395.843 1008.84 396.083 1009.08C396.339 1009.3 396.659 1009.49 397.043 1009.65C397.427 1009.8 397.859 1009.92 398.339 1010.04C398.819 1010.13 399.299 1010.24 399.779 1010.35C400.291 1010.46 400.787 1010.6 401.267 1010.76C401.763 1010.92 402.195 1011.13 402.563 1011.4C402.947 1011.66 403.251 1011.99 403.475 1012.39C403.715 1012.79 403.835 1013.28 403.835 1013.88C403.835 1014.63 403.675 1015.25 403.355 1015.75C403.051 1016.24 402.643 1016.64 402.131 1016.95C401.635 1017.25 401.067 1017.46 400.427 1017.57C399.803 1017.7 399.179 1017.76 398.555 1017.76C397.867 1017.76 397.211 1017.69 396.587 1017.55C395.963 1017.4 395.411 1017.17 394.931 1016.85C394.451 1016.52 394.067 1016.08 393.779 1015.56C393.491 1015.01 393.331 1014.36 393.299 1013.59H395.339ZM410.963 1019.16C410.723 1019.76 410.483 1020.28 410.243 1020.69C410.019 1021.11 409.763 1021.44 409.475 1021.7C409.203 1021.97 408.891 1022.16 408.539 1022.28C408.203 1022.4 407.811 1022.47 407.363 1022.47C407.123 1022.47 406.883 1022.45 406.643 1022.42C406.403 1022.39 406.171 1022.33 405.947 1022.25V1020.38C406.123 1020.46 406.323 1020.52 406.547 1020.57C406.787 1020.64 406.987 1020.67 407.147 1020.67C407.563 1020.67 407.907 1020.56 408.179 1020.36C408.467 1020.16 408.683 1019.88 408.827 1019.52L409.667 1017.43L404.747 1005.09H407.051L410.675 1015.24H410.723L414.203 1005.09H416.363L410.963 1019.16ZM419.339 1013.59C419.355 1014.04 419.459 1014.42 419.651 1014.74C419.843 1015.04 420.091 1015.29 420.395 1015.48C420.715 1015.66 421.067 1015.79 421.451 1015.87C421.851 1015.95 422.259 1015.99 422.675 1015.99C422.995 1015.99 423.331 1015.96 423.683 1015.92C424.035 1015.87 424.355 1015.78 424.643 1015.65C424.947 1015.52 425.195 1015.34 425.387 1015.1C425.579 1014.84 425.675 1014.52 425.675 1014.14C425.675 1013.61 425.475 1013.21 425.075 1012.94C424.675 1012.67 424.171 1012.45 423.563 1012.29C422.971 1012.12 422.323 1011.96 421.619 1011.84C420.915 1011.69 420.259 1011.5 419.651 1011.26C419.059 1011 418.563 1010.65 418.163 1010.2C417.763 1009.76 417.563 1009.13 417.563 1008.33C417.563 1007.71 417.699 1007.17 417.971 1006.72C418.259 1006.28 418.619 1005.92 419.051 1005.64C419.499 1005.36 419.995 1005.15 420.539 1005.02C421.099 1004.88 421.651 1004.8 422.195 1004.8C422.899 1004.8 423.547 1004.87 424.139 1005C424.731 1005.11 425.251 1005.32 425.699 1005.62C426.163 1005.91 426.531 1006.31 426.803 1006.82C427.075 1007.32 427.235 1007.94 427.283 1008.69H425.243C425.211 1008.29 425.107 1007.96 424.931 1007.71C424.755 1007.44 424.531 1007.22 424.259 1007.06C423.987 1006.9 423.683 1006.79 423.347 1006.72C423.027 1006.64 422.699 1006.6 422.363 1006.6C422.059 1006.6 421.747 1006.63 421.427 1006.68C421.123 1006.72 420.843 1006.81 420.587 1006.94C420.331 1007.05 420.123 1007.21 419.963 1007.42C419.803 1007.61 419.723 1007.87 419.723 1008.19C419.723 1008.54 419.843 1008.84 420.083 1009.08C420.339 1009.3 420.659 1009.49 421.043 1009.65C421.427 1009.8 421.859 1009.92 422.339 1010.04C422.819 1010.13 423.299 1010.24 423.779 1010.35C424.291 1010.46 424.787 1010.6 425.267 1010.76C425.763 1010.92 426.195 1011.13 426.563 1011.4C426.947 1011.66 427.251 1011.99 427.475 1012.39C427.715 1012.79 427.835 1013.28 427.835 1013.88C427.835 1014.63 427.675 1015.25 427.355 1015.75C427.051 1016.24 426.643 1016.64 426.131 1016.95C425.635 1017.25 425.067 1017.46 424.427 1017.57C423.803 1017.7 423.179 1017.76 422.555 1017.76C421.867 1017.76 421.211 1017.69 420.587 1017.55C419.963 1017.4 419.411 1017.17 418.931 1016.85C418.451 1016.52 418.067 1016.08 417.779 1015.56C417.491 1015.01 417.331 1014.36 417.299 1013.59H419.339ZM432.923 1005.09H435.395V1006.89H432.923V1014.6C432.923 1014.84 432.939 1015.03 432.971 1015.17C433.019 1015.32 433.099 1015.43 433.211 1015.51C433.323 1015.59 433.475 1015.64 433.667 1015.68C433.875 1015.69 434.139 1015.7 434.459 1015.7H435.395V1017.5H433.835C433.307 1017.5 432.851 1017.47 432.467 1017.4C432.099 1017.32 431.795 1017.19 431.555 1017C431.331 1016.8 431.163 1016.53 431.051 1016.18C430.939 1015.83 430.883 1015.36 430.883 1014.79V1006.89H428.771V1005.09H430.883V1001.37H432.923V1005.09ZM446.277 1010.11C446.245 1009.63 446.133 1009.17 445.941 1008.74C445.765 1008.31 445.517 1007.94 445.197 1007.64C444.893 1007.32 444.525 1007.07 444.093 1006.89C443.677 1006.7 443.213 1006.6 442.701 1006.6C442.173 1006.6 441.693 1006.7 441.261 1006.89C440.845 1007.07 440.485 1007.32 440.181 1007.64C439.877 1007.96 439.637 1008.33 439.461 1008.76C439.285 1009.18 439.181 1009.63 439.149 1010.11H446.277ZM448.245 1013.56C447.973 1014.96 447.373 1016 446.445 1016.71C445.517 1017.41 444.349 1017.76 442.941 1017.76C441.949 1017.76 441.085 1017.6 440.349 1017.28C439.629 1016.96 439.021 1016.52 438.525 1015.94C438.029 1015.36 437.653 1014.68 437.397 1013.88C437.157 1013.08 437.021 1012.2 436.989 1011.26C436.989 1010.32 437.133 1009.45 437.421 1008.67C437.709 1007.88 438.109 1007.2 438.621 1006.63C439.149 1006.05 439.765 1005.6 440.469 1005.28C441.189 1004.96 441.973 1004.8 442.821 1004.8C443.925 1004.8 444.837 1005.04 445.557 1005.5C446.293 1005.95 446.877 1006.52 447.309 1007.23C447.757 1007.93 448.061 1008.7 448.221 1009.53C448.397 1010.36 448.469 1011.16 448.437 1011.91H439.149C439.133 1012.45 439.197 1012.97 439.341 1013.47C439.485 1013.95 439.717 1014.38 440.037 1014.76C440.357 1015.13 440.765 1015.43 441.261 1015.65C441.757 1015.88 442.341 1015.99 443.013 1015.99C443.877 1015.99 444.581 1015.79 445.125 1015.39C445.685 1014.99 446.053 1014.38 446.229 1013.56H448.245ZM450.552 1005.09H452.472V1006.92H452.52C453.448 1005.51 454.784 1004.8 456.528 1004.8C457.296 1004.8 457.992 1004.96 458.616 1005.28C459.24 1005.6 459.68 1006.15 459.936 1006.92C460.352 1006.24 460.896 1005.72 461.568 1005.36C462.256 1004.99 463.008 1004.8 463.824 1004.8C464.448 1004.8 465.008 1004.88 465.504 1005.02C466.016 1005.15 466.448 1005.36 466.8 1005.64C467.168 1005.93 467.448 1006.31 467.64 1006.77C467.848 1007.22 467.952 1007.76 467.952 1008.4V1017.5H465.912V1009.36C465.912 1008.98 465.88 1008.62 465.816 1008.28C465.752 1007.95 465.632 1007.66 465.456 1007.42C465.28 1007.16 465.032 1006.96 464.712 1006.82C464.408 1006.68 464.008 1006.6 463.512 1006.6C462.504 1006.6 461.712 1006.89 461.136 1007.47C460.56 1008.04 460.272 1008.81 460.272 1009.77V1017.5H458.232V1009.36C458.232 1008.96 458.192 1008.6 458.112 1008.26C458.048 1007.92 457.928 1007.64 457.752 1007.4C457.576 1007.14 457.336 1006.95 457.032 1006.82C456.744 1006.68 456.368 1006.6 455.904 1006.6C455.312 1006.6 454.8 1006.72 454.368 1006.96C453.952 1007.2 453.608 1007.49 453.336 1007.83C453.08 1008.16 452.888 1008.52 452.76 1008.88C452.648 1009.24 452.592 1009.53 452.592 1009.77V1017.5H450.552V1005.09ZM480.524 1005.09H482.996V1006.89H480.524V1014.6C480.524 1014.84 480.54 1015.03 480.572 1015.17C480.62 1015.32 480.7 1015.43 480.812 1015.51C480.924 1015.59 481.076 1015.64 481.268 1015.68C481.476 1015.69 481.74 1015.7 482.06 1015.7H482.996V1017.5H481.436C480.908 1017.5 480.452 1017.47 480.068 1017.4C479.7 1017.32 479.396 1017.19 479.156 1017C478.932 1016.8 478.764 1016.53 478.652 1016.18C478.54 1015.83 478.484 1015.36 478.484 1014.79V1006.89H476.372V1005.09H478.484V1001.37H480.524V1005.09ZM485.263 1000.36H487.303V1006.92H487.351C487.511 1006.53 487.735 1006.21 488.023 1005.96C488.311 1005.68 488.631 1005.47 488.983 1005.31C489.351 1005.13 489.727 1005 490.111 1004.92C490.511 1004.84 490.895 1004.8 491.263 1004.8C492.079 1004.8 492.759 1004.92 493.303 1005.14C493.847 1005.36 494.287 1005.68 494.623 1006.08C494.959 1006.48 495.191 1006.96 495.319 1007.52C495.463 1008.06 495.535 1008.67 495.535 1009.34V1017.5H493.495V1009.1C493.495 1008.33 493.271 1007.72 492.823 1007.28C492.375 1006.83 491.759 1006.6 490.975 1006.6C490.351 1006.6 489.807 1006.7 489.343 1006.89C488.895 1007.08 488.519 1007.36 488.215 1007.71C487.911 1008.06 487.679 1008.48 487.519 1008.96C487.375 1009.42 487.303 1009.93 487.303 1010.49V1017.5H485.263V1000.36ZM509.591 1017.45C509.239 1017.66 508.751 1017.76 508.127 1017.76C507.599 1017.76 507.175 1017.62 506.855 1017.33C506.551 1017.03 506.399 1016.54 506.399 1015.87C505.839 1016.54 505.183 1017.03 504.431 1017.33C503.695 1017.62 502.895 1017.76 502.031 1017.76C501.471 1017.76 500.935 1017.7 500.423 1017.57C499.927 1017.44 499.495 1017.24 499.127 1016.97C498.759 1016.7 498.463 1016.35 498.239 1015.92C498.031 1015.47 497.927 1014.93 497.927 1014.31C497.927 1013.6 498.047 1013.03 498.287 1012.58C498.527 1012.13 498.839 1011.77 499.223 1011.5C499.623 1011.21 500.071 1011 500.567 1010.85C501.079 1010.71 501.599 1010.59 502.127 1010.49C502.687 1010.38 503.215 1010.3 503.711 1010.25C504.223 1010.19 504.671 1010.11 505.055 1010.01C505.439 1009.9 505.743 1009.75 505.967 1009.56C506.191 1009.35 506.303 1009.05 506.303 1008.67C506.303 1008.22 506.215 1007.86 506.039 1007.59C505.879 1007.32 505.663 1007.11 505.391 1006.96C505.135 1006.82 504.839 1006.72 504.503 1006.68C504.183 1006.63 503.863 1006.6 503.543 1006.6C502.679 1006.6 501.959 1006.77 501.383 1007.11C500.807 1007.43 500.495 1008.04 500.447 1008.96H498.407C498.439 1008.19 498.599 1007.54 498.887 1007.01C499.175 1006.48 499.559 1006.06 500.039 1005.74C500.519 1005.4 501.063 1005.16 501.671 1005.02C502.295 1004.88 502.959 1004.8 503.663 1004.8C504.223 1004.8 504.775 1004.84 505.319 1004.92C505.879 1005 506.383 1005.17 506.831 1005.43C507.279 1005.67 507.639 1006.01 507.911 1006.46C508.183 1006.91 508.319 1007.49 508.319 1008.21V1014.6C508.319 1015.08 508.343 1015.43 508.391 1015.65C508.455 1015.88 508.647 1015.99 508.967 1015.99C509.143 1015.99 509.351 1015.95 509.591 1015.87V1017.45ZM506.279 1011.09C506.023 1011.28 505.687 1011.43 505.271 1011.52C504.855 1011.6 504.415 1011.68 503.951 1011.74C503.503 1011.79 503.047 1011.85 502.583 1011.93C502.119 1012 501.703 1012.11 501.335 1012.27C500.967 1012.43 500.663 1012.66 500.423 1012.96C500.199 1013.25 500.087 1013.65 500.087 1014.16C500.087 1014.5 500.151 1014.79 500.279 1015.03C500.423 1015.25 500.599 1015.44 500.807 1015.58C501.031 1015.72 501.287 1015.83 501.575 1015.89C501.863 1015.96 502.167 1015.99 502.487 1015.99C503.159 1015.99 503.735 1015.9 504.215 1015.72C504.695 1015.53 505.087 1015.3 505.391 1015.03C505.695 1014.74 505.919 1014.44 506.063 1014.12C506.207 1013.78 506.279 1013.47 506.279 1013.18V1011.09ZM514.321 1005.09H516.793V1006.89H514.321V1014.6C514.321 1014.84 514.337 1015.03 514.369 1015.17C514.417 1015.32 514.497 1015.43 514.609 1015.51C514.721 1015.59 514.873 1015.64 515.065 1015.68C515.273 1015.69 515.537 1015.7 515.857 1015.7H516.793V1017.5H515.233C514.705 1017.5 514.249 1017.47 513.865 1017.4C513.497 1017.32 513.193 1017.19 512.953 1017C512.729 1016.8 512.561 1016.53 512.449 1016.18C512.337 1015.83 512.281 1015.36 512.281 1014.79V1006.89H510.169V1005.09H512.281V1001.37H514.321V1005.09ZM528.571 1005.09H531.043V1006.89H528.571V1014.6C528.571 1014.84 528.587 1015.03 528.619 1015.17C528.667 1015.32 528.747 1015.43 528.859 1015.51C528.971 1015.59 529.123 1015.64 529.315 1015.68C529.523 1015.69 529.787 1015.7 530.107 1015.7H531.043V1017.5H529.483C528.955 1017.5 528.499 1017.47 528.115 1017.4C527.747 1017.32 527.443 1017.19 527.203 1017C526.979 1016.8 526.811 1016.53 526.699 1016.18C526.587 1015.83 526.531 1015.36 526.531 1014.79V1006.89H524.419V1005.09H526.531V1001.37H528.571V1005.09ZM533.237 1005.09H535.157V1007.71H535.205C535.701 1006.7 536.309 1005.96 537.029 1005.48C537.749 1005 538.661 1004.77 539.765 1004.8V1006.96C538.949 1006.96 538.253 1007.08 537.677 1007.3C537.101 1007.52 536.637 1007.85 536.285 1008.28C535.933 1008.72 535.677 1009.24 535.517 1009.87C535.357 1010.48 535.277 1011.18 535.277 1011.98V1017.5H533.237V1005.09ZM552.294 1017.45C551.942 1017.66 551.454 1017.76 550.83 1017.76C550.302 1017.76 549.878 1017.62 549.558 1017.33C549.254 1017.03 549.102 1016.54 549.102 1015.87C548.542 1016.54 547.886 1017.03 547.134 1017.33C546.398 1017.62 545.598 1017.76 544.734 1017.76C544.174 1017.76 543.638 1017.7 543.126 1017.57C542.63 1017.44 542.198 1017.24 541.83 1016.97C541.462 1016.7 541.166 1016.35 540.942 1015.92C540.734 1015.47 540.63 1014.93 540.63 1014.31C540.63 1013.6 540.75 1013.03 540.99 1012.58C541.23 1012.13 541.542 1011.77 541.926 1011.5C542.326 1011.21 542.774 1011 543.27 1010.85C543.782 1010.71 544.302 1010.59 544.83 1010.49C545.39 1010.38 545.918 1010.3 546.414 1010.25C546.926 1010.19 547.374 1010.11 547.758 1010.01C548.142 1009.9 548.446 1009.75 548.67 1009.56C548.894 1009.35 549.006 1009.05 549.006 1008.67C549.006 1008.22 548.918 1007.86 548.742 1007.59C548.582 1007.32 548.366 1007.11 548.094 1006.96C547.838 1006.82 547.542 1006.72 547.206 1006.68C546.886 1006.63 546.566 1006.6 546.246 1006.6C545.382 1006.6 544.662 1006.77 544.086 1007.11C543.51 1007.43 543.198 1008.04 543.15 1008.96H541.11C541.142 1008.19 541.302 1007.54 541.59 1007.01C541.878 1006.48 542.262 1006.06 542.742 1005.74C543.222 1005.4 543.766 1005.16 544.374 1005.02C544.998 1004.88 545.662 1004.8 546.366 1004.8C546.926 1004.8 547.478 1004.84 548.022 1004.92C548.582 1005 549.086 1005.17 549.534 1005.43C549.982 1005.67 550.342 1006.01 550.614 1006.46C550.886 1006.91 551.022 1007.49 551.022 1008.21V1014.6C551.022 1015.08 551.046 1015.43 551.094 1015.65C551.158 1015.88 551.35 1015.99 551.67 1015.99C551.846 1015.99 552.054 1015.95 552.294 1015.87V1017.45ZM548.982 1011.09C548.726 1011.28 548.39 1011.43 547.974 1011.52C547.558 1011.6 547.118 1011.68 546.654 1011.74C546.206 1011.79 545.75 1011.85 545.286 1011.93C544.822 1012 544.406 1012.11 544.038 1012.27C543.67 1012.43 543.366 1012.66 543.126 1012.96C542.902 1013.25 542.79 1013.65 542.79 1014.16C542.79 1014.5 542.854 1014.79 542.982 1015.03C543.126 1015.25 543.302 1015.44 543.51 1015.58C543.734 1015.72 543.99 1015.83 544.278 1015.89C544.566 1015.96 544.87 1015.99 545.19 1015.99C545.862 1015.99 546.438 1015.9 546.918 1015.72C547.398 1015.53 547.79 1015.3 548.094 1015.03C548.398 1014.74 548.622 1014.44 548.766 1014.12C548.91 1013.78 548.982 1013.47 548.982 1013.18V1011.09ZM554.192 1005.09H556.112V1007.06H556.16C557.008 1005.56 558.352 1004.8 560.192 1004.8C561.008 1004.8 561.688 1004.92 562.232 1005.14C562.776 1005.36 563.216 1005.68 563.552 1006.08C563.888 1006.48 564.12 1006.96 564.248 1007.52C564.392 1008.06 564.464 1008.67 564.464 1009.34V1017.5H562.424V1009.1C562.424 1008.33 562.2 1007.72 561.752 1007.28C561.304 1006.83 560.688 1006.6 559.904 1006.6C559.28 1006.6 558.736 1006.7 558.272 1006.89C557.824 1007.08 557.448 1007.36 557.144 1007.71C556.84 1008.06 556.608 1008.48 556.448 1008.96C556.304 1009.42 556.232 1009.93 556.232 1010.49V1017.5H554.192V1005.09ZM568.776 1013.59C568.792 1014.04 568.896 1014.42 569.088 1014.74C569.28 1015.04 569.528 1015.29 569.832 1015.48C570.152 1015.66 570.504 1015.79 570.888 1015.87C571.288 1015.95 571.696 1015.99 572.112 1015.99C572.432 1015.99 572.768 1015.96 573.12 1015.92C573.472 1015.87 573.792 1015.78 574.08 1015.65C574.384 1015.52 574.632 1015.34 574.824 1015.1C575.016 1014.84 575.112 1014.52 575.112 1014.14C575.112 1013.61 574.912 1013.21 574.512 1012.94C574.112 1012.67 573.608 1012.45 573 1012.29C572.408 1012.12 571.76 1011.96 571.056 1011.84C570.352 1011.69 569.696 1011.5 569.088 1011.26C568.496 1011 568 1010.65 567.6 1010.2C567.2 1009.76 567 1009.13 567 1008.33C567 1007.71 567.136 1007.17 567.408 1006.72C567.696 1006.28 568.056 1005.92 568.488 1005.64C568.936 1005.36 569.432 1005.15 569.976 1005.02C570.536 1004.88 571.088 1004.8 571.632 1004.8C572.336 1004.8 572.984 1004.87 573.576 1005C574.168 1005.11 574.688 1005.32 575.136 1005.62C575.6 1005.91 575.968 1006.31 576.24 1006.82C576.512 1007.32 576.672 1007.94 576.72 1008.69H574.68C574.648 1008.29 574.544 1007.96 574.368 1007.71C574.192 1007.44 573.968 1007.22 573.696 1007.06C573.424 1006.9 573.12 1006.79 572.784 1006.72C572.464 1006.64 572.136 1006.6 571.8 1006.6C571.496 1006.6 571.184 1006.63 570.864 1006.68C570.56 1006.72 570.28 1006.81 570.024 1006.94C569.768 1007.05 569.56 1007.21 569.4 1007.42C569.24 1007.61 569.16 1007.87 569.16 1008.19C569.16 1008.54 569.28 1008.84 569.52 1009.08C569.776 1009.3 570.096 1009.49 570.48 1009.65C570.864 1009.8 571.296 1009.92 571.776 1010.04C572.256 1010.13 572.736 1010.24 573.216 1010.35C573.728 1010.46 574.224 1010.6 574.704 1010.76C575.2 1010.92 575.632 1011.13 576 1011.4C576.384 1011.66 576.688 1011.99 576.912 1012.39C577.152 1012.79 577.272 1013.28 577.272 1013.88C577.272 1014.63 577.112 1015.25 576.792 1015.75C576.488 1016.24 576.08 1016.64 575.568 1016.95C575.072 1017.25 574.504 1017.46 573.864 1017.57C573.24 1017.7 572.616 1017.76 571.992 1017.76C571.304 1017.76 570.648 1017.69 570.024 1017.55C569.4 1017.4 568.848 1017.17 568.368 1016.85C567.888 1016.52 567.504 1016.08 567.216 1015.56C566.928 1015.01 566.768 1014.36 566.736 1013.59H568.776ZM580.368 1006.89H578.28V1005.09H580.368V1003.24C580.368 1002.24 580.656 1001.48 581.232 1000.96C581.824 1000.44 582.68 1000.17 583.8 1000.17C583.992 1000.17 584.208 1000.19 584.448 1000.22C584.704 1000.25 584.928 1000.3 585.12 1000.36V1002.14C584.944 1002.08 584.752 1002.04 584.544 1002.02C584.336 1001.99 584.144 1001.97 583.968 1001.97C583.472 1001.97 583.088 1002.07 582.816 1002.26C582.544 1002.45 582.408 1002.82 582.408 1003.36V1005.09H584.808V1006.89H582.408V1017.5H580.368V1006.89ZM588.118 1011.31C588.118 1012.06 588.214 1012.73 588.406 1013.32C588.614 1013.9 588.894 1014.39 589.246 1014.79C589.598 1015.17 590.006 1015.47 590.47 1015.68C590.95 1015.88 591.454 1015.99 591.982 1015.99C592.51 1015.99 593.006 1015.88 593.47 1015.68C593.95 1015.47 594.366 1015.17 594.718 1014.79C595.07 1014.39 595.342 1013.9 595.534 1013.32C595.742 1012.73 595.846 1012.06 595.846 1011.31C595.846 1010.56 595.742 1009.89 595.534 1009.32C595.342 1008.72 595.07 1008.23 594.718 1007.83C594.366 1007.43 593.95 1007.12 593.47 1006.92C593.006 1006.71 592.51 1006.6 591.982 1006.6C591.454 1006.6 590.95 1006.71 590.47 1006.92C590.006 1007.12 589.598 1007.43 589.246 1007.83C588.894 1008.23 588.614 1008.72 588.406 1009.32C588.214 1009.89 588.118 1010.56 588.118 1011.31ZM585.958 1011.31C585.958 1010.4 586.086 1009.55 586.342 1008.76C586.598 1007.96 586.982 1007.28 587.494 1006.7C588.006 1006.11 588.638 1005.64 589.39 1005.31C590.142 1004.97 591.006 1004.8 591.982 1004.8C592.974 1004.8 593.838 1004.97 594.574 1005.31C595.326 1005.64 595.958 1006.11 596.47 1006.7C596.982 1007.28 597.366 1007.96 597.622 1008.76C597.878 1009.55 598.006 1010.4 598.006 1011.31C598.006 1012.22 597.878 1013.07 597.622 1013.85C597.366 1014.64 596.982 1015.32 596.47 1015.92C595.958 1016.49 595.326 1016.95 594.574 1017.28C593.838 1017.6 592.974 1017.76 591.982 1017.76C591.006 1017.76 590.142 1017.6 589.39 1017.28C588.638 1016.95 588.006 1016.49 587.494 1015.92C586.982 1015.32 586.598 1014.64 586.342 1013.85C586.086 1013.07 585.958 1012.22 585.958 1011.31ZM600.339 1005.09H602.259V1007.71H602.307C602.803 1006.7 603.411 1005.96 604.131 1005.48C604.851 1005 605.763 1004.77 606.867 1004.8V1006.96C606.051 1006.96 605.355 1007.08 604.779 1007.3C604.203 1007.52 603.739 1007.85 603.387 1008.28C603.035 1008.72 602.779 1009.24 602.619 1009.87C602.459 1010.48 602.379 1011.18 602.379 1011.98V1017.5H600.339V1005.09ZM608.403 1005.09H610.323V1006.92H610.371C611.299 1005.51 612.635 1004.8 614.379 1004.8C615.147 1004.8 615.843 1004.96 616.467 1005.28C617.091 1005.6 617.531 1006.15 617.787 1006.92C618.203 1006.24 618.747 1005.72 619.419 1005.36C620.107 1004.99 620.859 1004.8 621.675 1004.8C622.299 1004.8 622.859 1004.88 623.355 1005.02C623.867 1005.15 624.299 1005.36 624.651 1005.64C625.019 1005.93 625.299 1006.31 625.491 1006.77C625.699 1007.22 625.803 1007.76 625.803 1008.4V1017.5H623.763V1009.36C623.763 1008.98 623.731 1008.62 623.667 1008.28C623.603 1007.95 623.483 1007.66 623.307 1007.42C623.131 1007.16 622.883 1006.96 622.563 1006.82C622.259 1006.68 621.859 1006.6 621.363 1006.6C620.355 1006.6 619.563 1006.89 618.987 1007.47C618.411 1008.04 618.123 1008.81 618.123 1009.77V1017.5H616.083V1009.36C616.083 1008.96 616.043 1008.6 615.963 1008.26C615.899 1007.92 615.779 1007.64 615.603 1007.4C615.427 1007.14 615.187 1006.95 614.883 1006.82C614.595 1006.68 614.219 1006.6 613.755 1006.6C613.163 1006.6 612.651 1006.72 612.219 1006.96C611.803 1007.2 611.459 1007.49 611.187 1007.83C610.931 1008.16 610.739 1008.52 610.611 1008.88C610.499 1009.24 610.443 1009.53 610.443 1009.77V1017.5H608.403V1005.09ZM630.112 1013.59C630.128 1014.04 630.232 1014.42 630.424 1014.74C630.616 1015.04 630.864 1015.29 631.168 1015.48C631.488 1015.66 631.84 1015.79 632.224 1015.87C632.624 1015.95 633.032 1015.99 633.448 1015.99C633.768 1015.99 634.104 1015.96 634.456 1015.92C634.808 1015.87 635.128 1015.78 635.416 1015.65C635.72 1015.52 635.968 1015.34 636.16 1015.1C636.352 1014.84 636.448 1014.52 636.448 1014.14C636.448 1013.61 636.248 1013.21 635.848 1012.94C635.448 1012.67 634.944 1012.45 634.336 1012.29C633.744 1012.12 633.096 1011.96 632.392 1011.84C631.688 1011.69 631.032 1011.5 630.424 1011.26C629.832 1011 629.336 1010.65 628.936 1010.2C628.536 1009.76 628.336 1009.13 628.336 1008.33C628.336 1007.71 628.472 1007.17 628.744 1006.72C629.032 1006.28 629.392 1005.92 629.824 1005.64C630.272 1005.36 630.768 1005.15 631.312 1005.02C631.872 1004.88 632.424 1004.8 632.968 1004.8C633.672 1004.8 634.32 1004.87 634.912 1005C635.504 1005.11 636.024 1005.32 636.472 1005.62C636.936 1005.91 637.304 1006.31 637.576 1006.82C637.848 1007.32 638.008 1007.94 638.056 1008.69H636.016C635.984 1008.29 635.88 1007.96 635.704 1007.71C635.528 1007.44 635.304 1007.22 635.032 1007.06C634.76 1006.9 634.456 1006.79 634.12 1006.72C633.8 1006.64 633.472 1006.6 633.136 1006.6C632.832 1006.6 632.52 1006.63 632.2 1006.68C631.896 1006.72 631.616 1006.81 631.36 1006.94C631.104 1007.05 630.896 1007.21 630.736 1007.42C630.576 1007.61 630.496 1007.87 630.496 1008.19C630.496 1008.54 630.616 1008.84 630.856 1009.08C631.112 1009.3 631.432 1009.49 631.816 1009.65C632.2 1009.8 632.632 1009.92 633.112 1010.04C633.592 1010.13 634.072 1010.24 634.552 1010.35C635.064 1010.46 635.56 1010.6 636.04 1010.76C636.536 1010.92 636.968 1011.13 637.336 1011.4C637.72 1011.66 638.024 1011.99 638.248 1012.39C638.488 1012.79 638.608 1013.28 638.608 1013.88C638.608 1014.63 638.448 1015.25 638.128 1015.75C637.824 1016.24 637.416 1016.64 636.904 1016.95C636.408 1017.25 635.84 1017.46 635.2 1017.57C634.576 1017.7 633.952 1017.76 633.328 1017.76C632.64 1017.76 631.984 1017.69 631.36 1017.55C630.736 1017.4 630.184 1017.17 629.704 1016.85C629.224 1016.52 628.84 1016.08 628.552 1015.56C628.264 1015.01 628.104 1014.36 628.072 1013.59H630.112ZM647.472 1005.09H649.392V1007.71H649.44C649.936 1006.7 650.544 1005.96 651.264 1005.48C651.984 1005 652.896 1004.77 654 1004.8V1006.96C653.184 1006.96 652.488 1007.08 651.912 1007.3C651.336 1007.52 650.872 1007.85 650.52 1008.28C650.168 1008.72 649.912 1009.24 649.752 1009.87C649.592 1010.48 649.512 1011.18 649.512 1011.98V1017.5H647.472V1005.09ZM663.73 1010.11C663.698 1009.63 663.586 1009.17 663.394 1008.74C663.218 1008.31 662.97 1007.94 662.65 1007.64C662.346 1007.32 661.978 1007.07 661.546 1006.89C661.13 1006.7 660.666 1006.6 660.154 1006.6C659.626 1006.6 659.146 1006.7 658.714 1006.89C658.298 1007.07 657.938 1007.32 657.634 1007.64C657.33 1007.96 657.09 1008.33 656.914 1008.76C656.738 1009.18 656.634 1009.63 656.602 1010.11H663.73ZM665.698 1013.56C665.426 1014.96 664.826 1016 663.898 1016.71C662.97 1017.41 661.802 1017.76 660.394 1017.76C659.402 1017.76 658.538 1017.6 657.802 1017.28C657.082 1016.96 656.474 1016.52 655.978 1015.94C655.482 1015.36 655.106 1014.68 654.85 1013.88C654.61 1013.08 654.474 1012.2 654.442 1011.26C654.442 1010.32 654.586 1009.45 654.874 1008.67C655.162 1007.88 655.562 1007.2 656.074 1006.63C656.602 1006.05 657.218 1005.6 657.922 1005.28C658.642 1004.96 659.426 1004.8 660.274 1004.8C661.378 1004.8 662.29 1005.04 663.01 1005.5C663.746 1005.95 664.33 1006.52 664.762 1007.23C665.21 1007.93 665.514 1008.7 665.674 1009.53C665.85 1010.36 665.922 1011.16 665.89 1011.91H656.602C656.586 1012.45 656.65 1012.97 656.794 1013.47C656.938 1013.95 657.17 1014.38 657.49 1014.76C657.81 1015.13 658.218 1015.43 658.714 1015.65C659.21 1015.88 659.794 1015.99 660.466 1015.99C661.33 1015.99 662.034 1015.79 662.578 1015.39C663.138 1014.99 663.506 1014.38 663.682 1013.56H665.698ZM678.997 1017.45C678.645 1017.66 678.157 1017.76 677.533 1017.76C677.005 1017.76 676.581 1017.62 676.261 1017.33C675.957 1017.03 675.805 1016.54 675.805 1015.87C675.245 1016.54 674.589 1017.03 673.837 1017.33C673.101 1017.62 672.301 1017.76 671.437 1017.76C670.877 1017.76 670.341 1017.7 669.829 1017.57C669.333 1017.44 668.901 1017.24 668.533 1016.97C668.165 1016.7 667.869 1016.35 667.645 1015.92C667.437 1015.47 667.333 1014.93 667.333 1014.31C667.333 1013.6 667.453 1013.03 667.693 1012.58C667.933 1012.13 668.245 1011.77 668.629 1011.5C669.029 1011.21 669.477 1011 669.973 1010.85C670.485 1010.71 671.005 1010.59 671.533 1010.49C672.093 1010.38 672.621 1010.3 673.117 1010.25C673.629 1010.19 674.077 1010.11 674.461 1010.01C674.845 1009.9 675.149 1009.75 675.373 1009.56C675.597 1009.35 675.709 1009.05 675.709 1008.67C675.709 1008.22 675.621 1007.86 675.445 1007.59C675.285 1007.32 675.069 1007.11 674.797 1006.96C674.541 1006.82 674.245 1006.72 673.909 1006.68C673.589 1006.63 673.269 1006.6 672.949 1006.6C672.085 1006.6 671.365 1006.77 670.789 1007.11C670.213 1007.43 669.901 1008.04 669.853 1008.96H667.813C667.845 1008.19 668.005 1007.54 668.293 1007.01C668.581 1006.48 668.965 1006.06 669.445 1005.74C669.925 1005.4 670.469 1005.16 671.077 1005.02C671.701 1004.88 672.365 1004.8 673.069 1004.8C673.629 1004.8 674.181 1004.84 674.725 1004.92C675.285 1005 675.789 1005.17 676.237 1005.43C676.685 1005.67 677.045 1006.01 677.317 1006.46C677.589 1006.91 677.725 1007.49 677.725 1008.21V1014.6C677.725 1015.08 677.749 1015.43 677.797 1015.65C677.861 1015.88 678.053 1015.99 678.373 1015.99C678.549 1015.99 678.757 1015.95 678.997 1015.87V1017.45ZM675.685 1011.09C675.429 1011.28 675.093 1011.43 674.677 1011.52C674.261 1011.6 673.821 1011.68 673.357 1011.74C672.909 1011.79 672.453 1011.85 671.989 1011.93C671.525 1012 671.109 1012.11 670.741 1012.27C670.373 1012.43 670.069 1012.66 669.829 1012.96C669.605 1013.25 669.493 1013.65 669.493 1014.16C669.493 1014.5 669.557 1014.79 669.685 1015.03C669.829 1015.25 670.005 1015.44 670.213 1015.58C670.437 1015.72 670.693 1015.83 670.981 1015.89C671.269 1015.96 671.573 1015.99 671.893 1015.99C672.565 1015.99 673.141 1015.9 673.621 1015.72C674.101 1015.53 674.493 1015.3 674.797 1015.03C675.101 1014.74 675.325 1014.44 675.469 1014.12C675.613 1013.78 675.685 1013.47 675.685 1013.18V1011.09ZM681.015 1000.36H683.055V1017.5H681.015V1000.36ZM685.88 1009.87H692.816V1011.79H685.88V1009.87ZM698.376 1005.09H700.848V1006.89H698.376V1014.6C698.376 1014.84 698.392 1015.03 698.424 1015.17C698.472 1015.32 698.552 1015.43 698.664 1015.51C698.776 1015.59 698.928 1015.64 699.12 1015.68C699.328 1015.69 699.592 1015.7 699.912 1015.7H700.848V1017.5H699.288C698.76 1017.5 698.304 1017.47 697.92 1017.4C697.552 1017.32 697.248 1017.19 697.008 1017C696.784 1016.8 696.616 1016.53 696.504 1016.18C696.392 1015.83 696.336 1015.36 696.336 1014.79V1006.89H694.224V1005.09H696.336V1001.37H698.376V1005.09ZM705.274 1002.86H703.234V1000.36H705.274V1002.86ZM703.234 1005.09H705.274V1017.5H703.234V1005.09ZM708.434 1005.09H710.354V1006.92H710.402C711.33 1005.51 712.666 1004.8 714.41 1004.8C715.178 1004.8 715.874 1004.96 716.498 1005.28C717.122 1005.6 717.562 1006.15 717.818 1006.92C718.234 1006.24 718.778 1005.72 719.45 1005.36C720.138 1004.99 720.89 1004.8 721.706 1004.8C722.33 1004.8 722.89 1004.88 723.386 1005.02C723.898 1005.15 724.33 1005.36 724.682 1005.64C725.05 1005.93 725.33 1006.31 725.522 1006.77C725.73 1007.22 725.834 1007.76 725.834 1008.4V1017.5H723.794V1009.36C723.794 1008.98 723.762 1008.62 723.698 1008.28C723.634 1007.95 723.514 1007.66 723.338 1007.42C723.162 1007.16 722.914 1006.96 722.594 1006.82C722.29 1006.68 721.89 1006.6 721.394 1006.6C720.386 1006.6 719.594 1006.89 719.018 1007.47C718.442 1008.04 718.154 1008.81 718.154 1009.77V1017.5H716.114V1009.36C716.114 1008.96 716.074 1008.6 715.994 1008.26C715.93 1007.92 715.81 1007.64 715.634 1007.4C715.458 1007.14 715.218 1006.95 714.914 1006.82C714.626 1006.68 714.25 1006.6 713.786 1006.6C713.194 1006.6 712.682 1006.72 712.25 1006.96C711.834 1007.2 711.49 1007.49 711.218 1007.83C710.962 1008.16 710.77 1008.52 710.642 1008.88C710.53 1009.24 710.474 1009.53 710.474 1009.77V1017.5H708.434V1005.09ZM737.511 1010.11C737.479 1009.63 737.367 1009.17 737.175 1008.74C736.999 1008.31 736.751 1007.94 736.431 1007.64C736.127 1007.32 735.759 1007.07 735.327 1006.89C734.911 1006.7 734.447 1006.6 733.935 1006.6C733.407 1006.6 732.927 1006.7 732.495 1006.89C732.079 1007.07 731.719 1007.32 731.415 1007.64C731.111 1007.96 730.871 1008.33 730.695 1008.76C730.519 1009.18 730.415 1009.63 730.383 1010.11H737.511ZM739.479 1013.56C739.207 1014.96 738.607 1016 737.679 1016.71C736.751 1017.41 735.583 1017.76 734.175 1017.76C733.183 1017.76 732.319 1017.6 731.583 1017.28C730.863 1016.96 730.255 1016.52 729.759 1015.94C729.263 1015.36 728.887 1014.68 728.631 1013.88C728.391 1013.08 728.255 1012.2 728.223 1011.26C728.223 1010.32 728.367 1009.45 728.655 1008.67C728.943 1007.88 729.343 1007.2 729.855 1006.63C730.383 1006.05 730.999 1005.6 731.703 1005.28C732.423 1004.96 733.207 1004.8 734.055 1004.8C735.159 1004.8 736.071 1005.04 736.791 1005.5C737.527 1005.95 738.111 1006.52 738.543 1007.23C738.991 1007.93 739.295 1008.7 739.455 1009.53C739.631 1010.36 739.703 1011.16 739.671 1011.91H730.383C730.367 1012.45 730.431 1012.97 730.575 1013.47C730.719 1013.95 730.951 1014.38 731.271 1014.76C731.591 1015.13 731.999 1015.43 732.495 1015.65C732.991 1015.88 733.575 1015.99 734.247 1015.99C735.111 1015.99 735.815 1015.79 736.359 1015.39C736.919 1014.99 737.287 1014.38 737.463 1013.56H739.479ZM751.298 1005.09H753.77V1006.89H751.298V1014.6C751.298 1014.84 751.314 1015.03 751.346 1015.17C751.394 1015.32 751.474 1015.43 751.586 1015.51C751.698 1015.59 751.85 1015.64 752.042 1015.68C752.25 1015.69 752.514 1015.7 752.834 1015.7H753.77V1017.5H752.21C751.682 1017.5 751.226 1017.47 750.842 1017.4C750.474 1017.32 750.17 1017.19 749.93 1017C749.706 1016.8 749.538 1016.53 749.426 1016.18C749.314 1015.83 749.258 1015.36 749.258 1014.79V1006.89H747.146V1005.09H749.258V1001.37H751.298V1005.09ZM755.964 1005.09H757.884V1007.71H757.932C758.428 1006.7 759.036 1005.96 759.756 1005.48C760.476 1005 761.388 1004.77 762.492 1004.8V1006.96C761.676 1006.96 760.98 1007.08 760.404 1007.3C759.828 1007.52 759.364 1007.85 759.012 1008.28C758.66 1008.72 758.404 1009.24 758.244 1009.87C758.084 1010.48 758.004 1011.18 758.004 1011.98V1017.5H755.964V1005.09ZM775.02 1017.45C774.668 1017.66 774.18 1017.76 773.556 1017.76C773.028 1017.76 772.604 1017.62 772.284 1017.33C771.98 1017.03 771.828 1016.54 771.828 1015.87C771.268 1016.54 770.612 1017.03 769.86 1017.33C769.124 1017.62 768.324 1017.76 767.46 1017.76C766.9 1017.76 766.364 1017.7 765.852 1017.57C765.356 1017.44 764.924 1017.24 764.556 1016.97C764.188 1016.7 763.892 1016.35 763.668 1015.92C763.46 1015.47 763.356 1014.93 763.356 1014.31C763.356 1013.6 763.476 1013.03 763.716 1012.58C763.956 1012.13 764.268 1011.77 764.652 1011.5C765.052 1011.21 765.5 1011 765.996 1010.85C766.508 1010.71 767.028 1010.59 767.556 1010.49C768.116 1010.38 768.644 1010.3 769.14 1010.25C769.652 1010.19 770.1 1010.11 770.484 1010.01C770.868 1009.9 771.172 1009.75 771.396 1009.56C771.62 1009.35 771.732 1009.05 771.732 1008.67C771.732 1008.22 771.644 1007.86 771.468 1007.59C771.308 1007.32 771.092 1007.11 770.82 1006.96C770.564 1006.82 770.268 1006.72 769.932 1006.68C769.612 1006.63 769.292 1006.6 768.972 1006.6C768.108 1006.6 767.388 1006.77 766.812 1007.11C766.236 1007.43 765.924 1008.04 765.876 1008.96H763.836C763.868 1008.19 764.028 1007.54 764.316 1007.01C764.604 1006.48 764.988 1006.06 765.468 1005.74C765.948 1005.4 766.492 1005.16 767.1 1005.02C767.724 1004.88 768.388 1004.8 769.092 1004.8C769.652 1004.8 770.204 1004.84 770.748 1004.92C771.308 1005 771.812 1005.17 772.26 1005.43C772.708 1005.67 773.068 1006.01 773.34 1006.46C773.612 1006.91 773.748 1007.49 773.748 1008.21V1014.6C773.748 1015.08 773.772 1015.43 773.82 1015.65C773.884 1015.88 774.076 1015.99 774.396 1015.99C774.572 1015.99 774.78 1015.95 775.02 1015.87V1017.45ZM771.708 1011.09C771.452 1011.28 771.116 1011.43 770.7 1011.52C770.284 1011.6 769.844 1011.68 769.38 1011.74C768.932 1011.79 768.476 1011.85 768.012 1011.93C767.548 1012 767.132 1012.11 766.764 1012.27C766.396 1012.43 766.092 1012.66 765.852 1012.96C765.628 1013.25 765.516 1013.65 765.516 1014.16C765.516 1014.5 765.58 1014.79 765.708 1015.03C765.852 1015.25 766.028 1015.44 766.236 1015.58C766.46 1015.72 766.716 1015.83 767.004 1015.89C767.292 1015.96 767.596 1015.99 767.916 1015.99C768.588 1015.99 769.164 1015.9 769.644 1015.72C770.124 1015.53 770.516 1015.3 770.82 1015.03C771.124 1014.74 771.348 1014.44 771.492 1014.12C771.636 1013.78 771.708 1013.47 771.708 1013.18V1011.09ZM784.503 1006.89H779.799V1017.5H777.759V1006.89H775.671V1005.09H777.759V1003.24C777.759 1002.24 778.047 1001.48 778.623 1000.96C779.215 1000.44 780.071 1000.17 781.191 1000.17C781.383 1000.17 781.599 1000.19 781.839 1000.22C782.095 1000.25 782.319 1000.3 782.511 1000.36V1002.14C782.335 1002.08 782.143 1002.04 781.935 1002.02C781.727 1001.99 781.535 1001.97 781.359 1001.97C780.863 1001.97 780.479 1002.07 780.207 1002.26C779.935 1002.45 779.799 1002.82 779.799 1003.36V1005.09H784.503V1003.24C784.503 1002.24 784.791 1001.48 785.367 1000.96C785.959 1000.44 786.815 1000.17 787.935 1000.17C788.127 1000.17 788.343 1000.19 788.583 1000.22C788.839 1000.25 789.063 1000.3 789.255 1000.36V1002.14C789.079 1002.08 788.887 1002.04 788.679 1002.02C788.471 1001.99 788.279 1001.97 788.103 1001.97C787.607 1001.97 787.223 1002.07 786.951 1002.26C786.679 1002.45 786.543 1002.82 786.543 1003.36V1005.09H788.943V1006.89H786.543V1017.5H784.503V1006.89ZM792.927 1002.86H790.887V1000.36H792.927V1002.86ZM790.887 1005.09H792.927V1017.5H790.887V1005.09ZM804.515 1009.08C804.355 1008.29 804.019 1007.68 803.507 1007.25C802.995 1006.82 802.307 1006.6 801.443 1006.6C800.707 1006.6 800.091 1006.74 799.595 1007.01C799.099 1007.28 798.699 1007.64 798.395 1008.09C798.107 1008.54 797.899 1009.06 797.771 1009.65C797.643 1010.23 797.579 1010.83 797.579 1011.45C797.579 1012.03 797.643 1012.59 797.771 1013.13C797.915 1013.68 798.131 1014.16 798.419 1014.6C798.707 1015.01 799.083 1015.35 799.547 1015.6C800.011 1015.86 800.563 1015.99 801.203 1015.99C802.211 1015.99 802.995 1015.72 803.555 1015.2C804.131 1014.67 804.483 1013.92 804.611 1012.96H806.699C806.475 1014.5 805.899 1015.68 804.971 1016.52C804.059 1017.35 802.811 1017.76 801.227 1017.76C800.283 1017.76 799.443 1017.61 798.707 1017.31C797.987 1017 797.379 1016.57 796.883 1016.01C796.403 1015.45 796.035 1014.79 795.779 1014.02C795.539 1013.24 795.419 1012.38 795.419 1011.45C795.419 1010.52 795.539 1009.66 795.779 1008.86C796.019 1008.04 796.379 1007.34 796.859 1006.75C797.355 1006.14 797.971 1005.67 798.707 1005.33C799.443 1004.98 800.299 1004.8 801.275 1004.8C801.979 1004.8 802.635 1004.89 803.243 1005.07C803.867 1005.23 804.411 1005.48 804.875 1005.84C805.355 1006.19 805.747 1006.64 806.051 1007.18C806.355 1007.71 806.547 1008.34 806.627 1009.08H804.515ZM822.885 1000.36H824.925V1017.5H822.885V1000.36ZM816.501 1006.89H814.413V1005.09H816.501V1003.24C816.501 1002.24 816.789 1001.48 817.365 1000.96C817.957 1000.44 818.813 1000.17 819.933 1000.17C820.125 1000.17 820.341 1000.19 820.581 1000.22C820.837 1000.25 821.061 1000.3 821.253 1000.36V1002.14C821.077 1002.08 820.885 1002.04 820.677 1002.02C820.469 1001.99 820.277 1001.97 820.101 1001.97C819.605 1001.97 819.221 1002.07 818.949 1002.26C818.677 1002.45 818.541 1002.82 818.541 1003.36V1005.09H820.941V1006.89H818.541V1017.5H816.501V1006.89ZM829.571 1011.31C829.571 1012.06 829.667 1012.73 829.859 1013.32C830.067 1013.9 830.347 1014.39 830.699 1014.79C831.051 1015.17 831.459 1015.47 831.923 1015.68C832.403 1015.88 832.907 1015.99 833.435 1015.99C833.963 1015.99 834.459 1015.88 834.923 1015.68C835.403 1015.47 835.819 1015.17 836.171 1014.79C836.523 1014.39 836.795 1013.9 836.987 1013.32C837.195 1012.73 837.299 1012.06 837.299 1011.31C837.299 1010.56 837.195 1009.89 836.987 1009.32C836.795 1008.72 836.523 1008.23 836.171 1007.83C835.819 1007.43 835.403 1007.12 834.923 1006.92C834.459 1006.71 833.963 1006.6 833.435 1006.6C832.907 1006.6 832.403 1006.71 831.923 1006.92C831.459 1007.12 831.051 1007.43 830.699 1007.83C830.347 1008.23 830.067 1008.72 829.859 1009.32C829.667 1009.89 829.571 1010.56 829.571 1011.31ZM827.411 1011.31C827.411 1010.4 827.539 1009.55 827.795 1008.76C828.051 1007.96 828.435 1007.28 828.947 1006.7C829.459 1006.11 830.091 1005.64 830.843 1005.31C831.595 1004.97 832.459 1004.8 833.435 1004.8C834.427 1004.8 835.291 1004.97 836.027 1005.31C836.779 1005.64 837.411 1006.11 837.923 1006.7C838.435 1007.28 838.819 1007.96 839.075 1008.76C839.331 1009.55 839.459 1010.4 839.459 1011.31C839.459 1012.22 839.331 1013.07 839.075 1013.85C838.819 1014.64 838.435 1015.32 837.923 1015.92C837.411 1016.49 836.779 1016.95 836.027 1017.28C835.291 1017.6 834.427 1017.76 833.435 1017.76C832.459 1017.76 831.595 1017.6 830.843 1017.28C830.091 1016.95 829.459 1016.49 828.947 1015.92C828.435 1015.32 828.051 1014.64 827.795 1013.85C827.539 1013.07 827.411 1012.22 827.411 1011.31ZM854.152 1017.5H851.992L849.472 1007.64H849.424L846.928 1017.5H844.72L840.736 1005.09H842.992L845.8 1015.24H845.848L848.344 1005.09H850.576L853.168 1015.24H853.216L856 1005.09H858.112L854.152 1017.5ZM868.891 1002.86H866.851V1000.36H868.891V1002.86ZM866.851 1005.09H868.891V1017.5H866.851V1005.09ZM872.052 1005.09H873.972V1007.06H874.02C874.868 1005.56 876.212 1004.8 878.052 1004.8C878.868 1004.8 879.548 1004.92 880.092 1005.14C880.636 1005.36 881.076 1005.68 881.412 1006.08C881.748 1006.48 881.98 1006.96 882.108 1007.52C882.252 1008.06 882.324 1008.67 882.324 1009.34V1017.5H880.284V1009.1C880.284 1008.33 880.06 1007.72 879.612 1007.28C879.164 1006.83 878.548 1006.6 877.764 1006.6C877.14 1006.6 876.596 1006.7 876.132 1006.89C875.684 1007.08 875.308 1007.36 875.004 1007.71C874.7 1008.06 874.468 1008.48 874.308 1008.96C874.164 1009.42 874.092 1009.93 874.092 1010.49V1017.5H872.052V1005.09ZM888.22 1005.09H890.692V1006.89H888.22V1014.6C888.22 1014.84 888.236 1015.03 888.268 1015.17C888.316 1015.32 888.396 1015.43 888.508 1015.51C888.62 1015.59 888.772 1015.64 888.964 1015.68C889.172 1015.69 889.436 1015.7 889.756 1015.7H890.692V1017.5H889.132C888.604 1017.5 888.148 1017.47 887.764 1017.4C887.396 1017.32 887.092 1017.19 886.852 1017C886.628 1016.8 886.46 1016.53 886.348 1016.18C886.236 1015.83 886.18 1015.36 886.18 1014.79V1006.89H884.068V1005.09H886.18V1001.37H888.22V1005.09ZM894.446 1011.31C894.446 1012.06 894.542 1012.73 894.734 1013.32C894.942 1013.9 895.222 1014.39 895.574 1014.79C895.926 1015.17 896.334 1015.47 896.798 1015.68C897.278 1015.88 897.782 1015.99 898.31 1015.99C898.838 1015.99 899.334 1015.88 899.798 1015.68C900.278 1015.47 900.694 1015.17 901.046 1014.79C901.398 1014.39 901.67 1013.9 901.862 1013.32C902.07 1012.73 902.174 1012.06 902.174 1011.31C902.174 1010.56 902.07 1009.89 901.862 1009.32C901.67 1008.72 901.398 1008.23 901.046 1007.83C900.694 1007.43 900.278 1007.12 899.798 1006.92C899.334 1006.71 898.838 1006.6 898.31 1006.6C897.782 1006.6 897.278 1006.71 896.798 1006.92C896.334 1007.12 895.926 1007.43 895.574 1007.83C895.222 1008.23 894.942 1008.72 894.734 1009.32C894.542 1009.89 894.446 1010.56 894.446 1011.31ZM892.286 1011.31C892.286 1010.4 892.414 1009.55 892.67 1008.76C892.926 1007.96 893.31 1007.28 893.822 1006.7C894.334 1006.11 894.966 1005.64 895.718 1005.31C896.47 1004.97 897.334 1004.8 898.31 1004.8C899.302 1004.8 900.166 1004.97 900.902 1005.31C901.654 1005.64 902.286 1006.11 902.798 1006.7C903.31 1007.28 903.694 1007.96 903.95 1008.76C904.206 1009.55 904.334 1010.4 904.334 1011.31C904.334 1012.22 904.206 1013.07 903.95 1013.85C903.694 1014.64 903.31 1015.32 902.798 1015.92C902.286 1016.49 901.654 1016.95 900.902 1017.28C900.166 1017.6 899.302 1017.76 898.31 1017.76C897.334 1017.76 896.47 1017.6 895.718 1017.28C894.966 1016.95 894.334 1016.49 893.822 1015.92C893.31 1015.32 892.926 1014.64 892.67 1013.85C892.414 1013.07 892.286 1012.22 892.286 1011.31ZM924.411 1017.45C924.059 1017.66 923.571 1017.76 922.947 1017.76C922.419 1017.76 921.995 1017.62 921.675 1017.33C921.371 1017.03 921.219 1016.54 921.219 1015.87C920.659 1016.54 920.003 1017.03 919.251 1017.33C918.515 1017.62 917.715 1017.76 916.851 1017.76C916.291 1017.76 915.755 1017.7 915.243 1017.57C914.747 1017.44 914.315 1017.24 913.947 1016.97C913.579 1016.7 913.283 1016.35 913.059 1015.92C912.851 1015.47 912.747 1014.93 912.747 1014.31C912.747 1013.6 912.867 1013.03 913.107 1012.58C913.347 1012.13 913.659 1011.77 914.043 1011.5C914.443 1011.21 914.891 1011 915.387 1010.85C915.899 1010.71 916.419 1010.59 916.947 1010.49C917.507 1010.38 918.035 1010.3 918.531 1010.25C919.043 1010.19 919.491 1010.11 919.875 1010.01C920.259 1009.9 920.563 1009.75 920.787 1009.56C921.011 1009.35 921.123 1009.05 921.123 1008.67C921.123 1008.22 921.035 1007.86 920.859 1007.59C920.699 1007.32 920.483 1007.11 920.211 1006.96C919.955 1006.82 919.659 1006.72 919.323 1006.68C919.003 1006.63 918.683 1006.6 918.363 1006.6C917.499 1006.6 916.779 1006.77 916.203 1007.11C915.627 1007.43 915.315 1008.04 915.267 1008.96H913.227C913.259 1008.19 913.419 1007.54 913.707 1007.01C913.995 1006.48 914.379 1006.06 914.859 1005.74C915.339 1005.4 915.883 1005.16 916.491 1005.02C917.115 1004.88 917.779 1004.8 918.483 1004.8C919.043 1004.8 919.595 1004.84 920.139 1004.92C920.699 1005 921.203 1005.17 921.651 1005.43C922.099 1005.67 922.459 1006.01 922.731 1006.46C923.003 1006.91 923.139 1007.49 923.139 1008.21V1014.6C923.139 1015.08 923.163 1015.43 923.211 1015.65C923.275 1015.88 923.467 1015.99 923.787 1015.99C923.963 1015.99 924.171 1015.95 924.411 1015.87V1017.45ZM921.099 1011.09C920.843 1011.28 920.507 1011.43 920.091 1011.52C919.675 1011.6 919.235 1011.68 918.771 1011.74C918.323 1011.79 917.867 1011.85 917.403 1011.93C916.939 1012 916.523 1012.11 916.155 1012.27C915.787 1012.43 915.483 1012.66 915.243 1012.96C915.019 1013.25 914.907 1013.65 914.907 1014.16C914.907 1014.5 914.971 1014.79 915.099 1015.03C915.243 1015.25 915.419 1015.44 915.627 1015.58C915.851 1015.72 916.107 1015.83 916.395 1015.89C916.683 1015.96 916.987 1015.99 917.307 1015.99C917.979 1015.99 918.555 1015.9 919.035 1015.72C919.515 1015.53 919.907 1015.3 920.211 1015.03C920.515 1014.74 920.739 1014.44 920.883 1014.12C921.027 1013.78 921.099 1013.47 921.099 1013.18V1011.09ZM926.309 1005.09H928.229V1007.06H928.277C929.125 1005.56 930.469 1004.8 932.309 1004.8C933.125 1004.8 933.805 1004.92 934.349 1005.14C934.893 1005.36 935.333 1005.68 935.669 1006.08C936.005 1006.48 936.237 1006.96 936.365 1007.52C936.509 1008.06 936.581 1008.67 936.581 1009.34V1017.5H934.541V1009.1C934.541 1008.33 934.317 1007.72 933.869 1007.28C933.421 1006.83 932.805 1006.6 932.021 1006.6C931.397 1006.6 930.853 1006.7 930.389 1006.89C929.941 1007.08 929.565 1007.36 929.261 1007.71C928.957 1008.06 928.725 1008.48 928.565 1008.96C928.421 1009.42 928.349 1009.93 928.349 1010.49V1017.5H926.309V1005.09ZM948.485 1002.86H946.445V1000.36H948.485V1002.86ZM946.445 1005.09H948.485V1017.5H946.445V1005.09ZM951.645 1005.09H953.565V1007.06H953.613C954.461 1005.56 955.805 1004.8 957.645 1004.8C958.461 1004.8 959.141 1004.92 959.685 1005.14C960.229 1005.36 960.669 1005.68 961.005 1006.08C961.341 1006.48 961.573 1006.96 961.701 1007.52C961.845 1008.06 961.917 1008.67 961.917 1009.34V1017.5H959.877V1009.1C959.877 1008.33 959.653 1007.72 959.205 1007.28C958.757 1006.83 958.141 1006.6 957.357 1006.6C956.733 1006.6 956.189 1006.7 955.725 1006.89C955.277 1007.08 954.901 1007.36 954.597 1007.71C954.293 1008.06 954.061 1008.48 953.901 1008.96C953.757 1009.42 953.685 1009.93 953.685 1010.49V1017.5H951.645V1005.09ZM967.813 1005.09H970.285V1006.89H967.813V1014.6C967.813 1014.84 967.829 1015.03 967.861 1015.17C967.909 1015.32 967.989 1015.43 968.101 1015.51C968.213 1015.59 968.365 1015.64 968.557 1015.68C968.765 1015.69 969.029 1015.7 969.349 1015.7H970.285V1017.5H968.725C968.197 1017.5 967.741 1017.47 967.357 1017.4C966.989 1017.32 966.685 1017.19 966.445 1017C966.221 1016.8 966.053 1016.53 965.941 1016.18C965.829 1015.83 965.773 1015.36 965.773 1014.79V1006.89H963.661V1005.09H965.773V1001.37H967.813V1005.09ZM982.824 1017.5H980.904V1015.53H980.856C980.424 1016.3 979.872 1016.87 979.2 1017.24C978.528 1017.59 977.736 1017.76 976.824 1017.76C976.008 1017.76 975.328 1017.66 974.784 1017.45C974.24 1017.23 973.8 1016.92 973.464 1016.52C973.128 1016.12 972.888 1015.64 972.744 1015.1C972.616 1014.54 972.552 1013.92 972.552 1013.25V1005.09H974.592V1013.49C974.592 1014.26 974.816 1014.87 975.264 1015.32C975.712 1015.76 976.328 1015.99 977.112 1015.99C977.736 1015.99 978.272 1015.89 978.72 1015.7C979.184 1015.51 979.568 1015.24 979.872 1014.88C980.176 1014.53 980.4 1014.12 980.544 1013.66C980.704 1013.18 980.784 1012.66 980.784 1012.1V1005.09H982.824V1017.5ZM988.048 1002.86H986.008V1000.36H988.048V1002.86ZM986.008 1005.09H988.048V1017.5H986.008V1005.09ZM994.04 1005.09H996.512V1006.89H994.04V1014.6C994.04 1014.84 994.056 1015.03 994.088 1015.17C994.136 1015.32 994.216 1015.43 994.328 1015.51C994.44 1015.59 994.592 1015.64 994.784 1015.68C994.992 1015.69 995.256 1015.7 995.576 1015.7H996.512V1017.5H994.952C994.424 1017.5 993.968 1017.47 993.584 1017.4C993.216 1017.32 992.912 1017.19 992.672 1017C992.448 1016.8 992.28 1016.53 992.168 1016.18C992.056 1015.83 992 1015.36 992 1014.79V1006.89H989.888V1005.09H992V1001.37H994.04V1005.09ZM1000.94 1002.86H998.898V1000.36H1000.94V1002.86ZM998.898 1005.09H1000.94V1017.5H998.898V1005.09ZM1009.69 1017.5H1007.51L1002.9 1005.09H1005.18L1008.66 1015.44H1008.71L1012.09 1005.09H1014.23L1009.69 1017.5ZM1024.71 1010.11C1024.68 1009.63 1024.57 1009.17 1024.38 1008.74C1024.2 1008.31 1023.95 1007.94 1023.63 1007.64C1023.33 1007.32 1022.96 1007.07 1022.53 1006.89C1022.11 1006.7 1021.65 1006.6 1021.14 1006.6C1020.61 1006.6 1020.13 1006.7 1019.7 1006.89C1019.28 1007.07 1018.92 1007.32 1018.62 1007.64C1018.31 1007.96 1018.07 1008.33 1017.9 1008.76C1017.72 1009.18 1017.62 1009.63 1017.59 1010.11H1024.71ZM1026.68 1013.56C1026.41 1014.96 1025.81 1016 1024.88 1016.71C1023.95 1017.41 1022.79 1017.76 1021.38 1017.76C1020.39 1017.76 1019.52 1017.6 1018.79 1017.28C1018.07 1016.96 1017.46 1016.52 1016.96 1015.94C1016.47 1015.36 1016.09 1014.68 1015.83 1013.88C1015.59 1013.08 1015.46 1012.2 1015.43 1011.26C1015.43 1010.32 1015.57 1009.45 1015.86 1008.67C1016.15 1007.88 1016.55 1007.2 1017.06 1006.63C1017.59 1006.05 1018.2 1005.6 1018.91 1005.28C1019.63 1004.96 1020.41 1004.8 1021.26 1004.8C1022.36 1004.8 1023.27 1005.04 1023.99 1005.5C1024.73 1005.95 1025.31 1006.52 1025.75 1007.23C1026.19 1007.93 1026.5 1008.7 1026.66 1009.53C1026.83 1010.36 1026.91 1011.16 1026.87 1011.91H1017.59C1017.57 1012.45 1017.63 1012.97 1017.78 1013.47C1017.92 1013.95 1018.15 1014.38 1018.47 1014.76C1018.79 1015.13 1019.2 1015.43 1019.7 1015.65C1020.19 1015.88 1020.78 1015.99 1021.45 1015.99C1022.31 1015.99 1023.02 1015.79 1023.56 1015.39C1024.12 1014.99 1024.49 1014.38 1024.67 1013.56H1026.68ZM1041.26 1017.5H1039.08L1034.47 1005.09H1036.75L1040.23 1015.44H1040.28L1043.66 1005.09H1045.8L1041.26 1017.5ZM1049.83 1002.86H1047.79V1000.36H1049.83V1002.86ZM1047.79 1005.09H1049.83V1017.5H1047.79V1005.09ZM1054.24 1013.59C1054.25 1014.04 1054.36 1014.42 1054.55 1014.74C1054.74 1015.04 1054.99 1015.29 1055.29 1015.48C1055.61 1015.66 1055.97 1015.79 1056.35 1015.87C1056.75 1015.95 1057.16 1015.99 1057.57 1015.99C1057.89 1015.99 1058.23 1015.96 1058.58 1015.92C1058.93 1015.87 1059.25 1015.78 1059.54 1015.65C1059.85 1015.52 1060.09 1015.34 1060.29 1015.1C1060.48 1014.84 1060.57 1014.52 1060.57 1014.14C1060.57 1013.61 1060.37 1013.21 1059.97 1012.94C1059.57 1012.67 1059.07 1012.45 1058.46 1012.29C1057.87 1012.12 1057.22 1011.96 1056.52 1011.84C1055.81 1011.69 1055.16 1011.5 1054.55 1011.26C1053.96 1011 1053.46 1010.65 1053.06 1010.2C1052.66 1009.76 1052.46 1009.13 1052.46 1008.33C1052.46 1007.71 1052.6 1007.17 1052.87 1006.72C1053.16 1006.28 1053.52 1005.92 1053.95 1005.64C1054.4 1005.36 1054.89 1005.15 1055.44 1005.02C1056 1004.88 1056.55 1004.8 1057.09 1004.8C1057.8 1004.8 1058.45 1004.87 1059.04 1005C1059.63 1005.11 1060.15 1005.32 1060.6 1005.62C1061.06 1005.91 1061.43 1006.31 1061.7 1006.82C1061.97 1007.32 1062.13 1007.94 1062.18 1008.69H1060.14C1060.11 1008.29 1060.01 1007.96 1059.83 1007.71C1059.65 1007.44 1059.43 1007.22 1059.16 1007.06C1058.89 1006.9 1058.58 1006.79 1058.25 1006.72C1057.93 1006.64 1057.6 1006.6 1057.26 1006.6C1056.96 1006.6 1056.65 1006.63 1056.33 1006.68C1056.02 1006.72 1055.74 1006.81 1055.49 1006.94C1055.23 1007.05 1055.02 1007.21 1054.86 1007.42C1054.7 1007.61 1054.62 1007.87 1054.62 1008.19C1054.62 1008.54 1054.74 1008.84 1054.98 1009.08C1055.24 1009.3 1055.56 1009.49 1055.94 1009.65C1056.33 1009.8 1056.76 1009.92 1057.24 1010.04C1057.72 1010.13 1058.2 1010.24 1058.68 1010.35C1059.19 1010.46 1059.69 1010.6 1060.17 1010.76C1060.66 1010.92 1061.09 1011.13 1061.46 1011.4C1061.85 1011.66 1062.15 1011.99 1062.37 1012.39C1062.61 1012.79 1062.73 1013.28 1062.73 1013.88C1062.73 1014.63 1062.57 1015.25 1062.25 1015.75C1061.95 1016.24 1061.54 1016.64 1061.03 1016.95C1060.53 1017.25 1059.97 1017.46 1059.33 1017.57C1058.7 1017.7 1058.08 1017.76 1057.45 1017.76C1056.77 1017.76 1056.11 1017.69 1055.49 1017.55C1054.86 1017.4 1054.31 1017.17 1053.83 1016.85C1053.35 1016.52 1052.97 1016.08 1052.68 1015.56C1052.39 1015.01 1052.23 1014.36 1052.2 1013.59H1054.24ZM1075.26 1017.5H1073.34V1015.53H1073.29C1072.86 1016.3 1072.31 1016.87 1071.64 1017.24C1070.97 1017.59 1070.17 1017.76 1069.26 1017.76C1068.45 1017.76 1067.77 1017.66 1067.22 1017.45C1066.68 1017.23 1066.24 1016.92 1065.9 1016.52C1065.57 1016.12 1065.33 1015.64 1065.18 1015.1C1065.05 1014.54 1064.99 1013.92 1064.99 1013.25V1005.09H1067.03V1013.49C1067.03 1014.26 1067.25 1014.87 1067.7 1015.32C1068.15 1015.76 1068.77 1015.99 1069.55 1015.99C1070.17 1015.99 1070.71 1015.89 1071.16 1015.7C1071.62 1015.51 1072.01 1015.24 1072.31 1014.88C1072.61 1014.53 1072.84 1014.12 1072.98 1013.66C1073.14 1013.18 1073.22 1012.66 1073.22 1012.1V1005.09H1075.26V1017.5ZM1089.32 1017.45C1088.97 1017.66 1088.48 1017.76 1087.85 1017.76C1087.33 1017.76 1086.9 1017.62 1086.58 1017.33C1086.28 1017.03 1086.13 1016.54 1086.13 1015.87C1085.57 1016.54 1084.91 1017.03 1084.16 1017.33C1083.42 1017.62 1082.62 1017.76 1081.76 1017.76C1081.2 1017.76 1080.66 1017.7 1080.15 1017.57C1079.65 1017.44 1079.22 1017.24 1078.85 1016.97C1078.49 1016.7 1078.19 1016.35 1077.97 1015.92C1077.76 1015.47 1077.65 1014.93 1077.65 1014.31C1077.65 1013.6 1077.77 1013.03 1078.01 1012.58C1078.25 1012.13 1078.57 1011.77 1078.95 1011.5C1079.35 1011.21 1079.8 1011 1080.29 1010.85C1080.81 1010.71 1081.33 1010.59 1081.85 1010.49C1082.41 1010.38 1082.94 1010.3 1083.44 1010.25C1083.95 1010.19 1084.4 1010.11 1084.78 1010.01C1085.17 1009.9 1085.47 1009.75 1085.69 1009.56C1085.92 1009.35 1086.03 1009.05 1086.03 1008.67C1086.03 1008.22 1085.94 1007.86 1085.77 1007.59C1085.61 1007.32 1085.39 1007.11 1085.12 1006.96C1084.86 1006.82 1084.57 1006.72 1084.23 1006.68C1083.91 1006.63 1083.59 1006.6 1083.27 1006.6C1082.41 1006.6 1081.69 1006.77 1081.11 1007.11C1080.53 1007.43 1080.22 1008.04 1080.17 1008.96H1078.13C1078.17 1008.19 1078.33 1007.54 1078.61 1007.01C1078.9 1006.48 1079.29 1006.06 1079.77 1005.74C1080.25 1005.4 1080.79 1005.16 1081.4 1005.02C1082.02 1004.88 1082.69 1004.8 1083.39 1004.8C1083.95 1004.8 1084.5 1004.84 1085.05 1004.92C1085.61 1005 1086.11 1005.17 1086.56 1005.43C1087.01 1005.67 1087.37 1006.01 1087.64 1006.46C1087.91 1006.91 1088.05 1007.49 1088.05 1008.21V1014.6C1088.05 1015.08 1088.07 1015.43 1088.12 1015.65C1088.18 1015.88 1088.37 1015.99 1088.69 1015.99C1088.87 1015.99 1089.08 1015.95 1089.32 1015.87V1017.45ZM1086.01 1011.09C1085.75 1011.28 1085.41 1011.43 1085 1011.52C1084.58 1011.6 1084.14 1011.68 1083.68 1011.74C1083.23 1011.79 1082.77 1011.85 1082.31 1011.93C1081.85 1012 1081.43 1012.11 1081.06 1012.27C1080.69 1012.43 1080.39 1012.66 1080.15 1012.96C1079.93 1013.25 1079.81 1013.65 1079.81 1014.16C1079.81 1014.5 1079.88 1014.79 1080.01 1015.03C1080.15 1015.25 1080.33 1015.44 1080.53 1015.58C1080.76 1015.72 1081.01 1015.83 1081.3 1015.89C1081.59 1015.96 1081.89 1015.99 1082.21 1015.99C1082.89 1015.99 1083.46 1015.9 1083.94 1015.72C1084.42 1015.53 1084.81 1015.3 1085.12 1015.03C1085.42 1014.74 1085.65 1014.44 1085.79 1014.12C1085.93 1013.78 1086.01 1013.47 1086.01 1013.18V1011.09ZM1091.34 1000.36H1093.38V1017.5H1091.34V1000.36ZM1103.34 1000.36H1105.38V1017.5H1103.34V1000.36ZM1119.53 1017.45C1119.18 1017.66 1118.69 1017.76 1118.06 1017.76C1117.54 1017.76 1117.11 1017.62 1116.79 1017.33C1116.49 1017.03 1116.34 1016.54 1116.34 1015.87C1115.78 1016.54 1115.12 1017.03 1114.37 1017.33C1113.63 1017.62 1112.83 1017.76 1111.97 1017.76C1111.41 1017.76 1110.87 1017.7 1110.36 1017.57C1109.86 1017.44 1109.43 1017.24 1109.06 1016.97C1108.7 1016.7 1108.4 1016.35 1108.18 1015.92C1107.97 1015.47 1107.86 1014.93 1107.86 1014.31C1107.86 1013.6 1107.98 1013.03 1108.22 1012.58C1108.46 1012.13 1108.78 1011.77 1109.16 1011.5C1109.56 1011.21 1110.01 1011 1110.5 1010.85C1111.02 1010.71 1111.54 1010.59 1112.06 1010.49C1112.62 1010.38 1113.15 1010.3 1113.65 1010.25C1114.16 1010.19 1114.61 1010.11 1114.99 1010.01C1115.38 1009.9 1115.68 1009.75 1115.9 1009.56C1116.13 1009.35 1116.24 1009.05 1116.24 1008.67C1116.24 1008.22 1116.15 1007.86 1115.98 1007.59C1115.82 1007.32 1115.6 1007.11 1115.33 1006.96C1115.07 1006.82 1114.78 1006.72 1114.44 1006.68C1114.12 1006.63 1113.8 1006.6 1113.48 1006.6C1112.62 1006.6 1111.9 1006.77 1111.32 1007.11C1110.74 1007.43 1110.43 1008.04 1110.38 1008.96H1108.34C1108.38 1008.19 1108.54 1007.54 1108.82 1007.01C1109.11 1006.48 1109.5 1006.06 1109.98 1005.74C1110.46 1005.4 1111 1005.16 1111.61 1005.02C1112.23 1004.88 1112.9 1004.8 1113.6 1004.8C1114.16 1004.8 1114.71 1004.84 1115.26 1004.92C1115.82 1005 1116.32 1005.17 1116.77 1005.43C1117.22 1005.67 1117.58 1006.01 1117.85 1006.46C1118.12 1006.91 1118.26 1007.49 1118.26 1008.21V1014.6C1118.26 1015.08 1118.28 1015.43 1118.33 1015.65C1118.39 1015.88 1118.58 1015.99 1118.9 1015.99C1119.08 1015.99 1119.29 1015.95 1119.53 1015.87V1017.45ZM1116.22 1011.09C1115.96 1011.28 1115.62 1011.43 1115.21 1011.52C1114.79 1011.6 1114.35 1011.68 1113.89 1011.74C1113.44 1011.79 1112.98 1011.85 1112.52 1011.93C1112.06 1012 1111.64 1012.11 1111.27 1012.27C1110.9 1012.43 1110.6 1012.66 1110.36 1012.96C1110.14 1013.25 1110.02 1013.65 1110.02 1014.16C1110.02 1014.5 1110.09 1014.79 1110.22 1015.03C1110.36 1015.25 1110.54 1015.44 1110.74 1015.58C1110.97 1015.72 1111.22 1015.83 1111.51 1015.89C1111.8 1015.96 1112.1 1015.99 1112.42 1015.99C1113.1 1015.99 1113.67 1015.9 1114.15 1015.72C1114.63 1015.53 1115.02 1015.3 1115.33 1015.03C1115.63 1014.74 1115.86 1014.44 1116 1014.12C1116.14 1013.78 1116.22 1013.47 1116.22 1013.18V1011.09ZM1121.43 1005.09H1123.35V1007.06H1123.39C1124.24 1005.56 1125.59 1004.8 1127.43 1004.8C1128.24 1004.8 1128.92 1004.92 1129.47 1005.14C1130.01 1005.36 1130.45 1005.68 1130.79 1006.08C1131.12 1006.48 1131.35 1006.96 1131.48 1007.52C1131.63 1008.06 1131.7 1008.67 1131.7 1009.34V1017.5H1129.66V1009.1C1129.66 1008.33 1129.43 1007.72 1128.99 1007.28C1128.54 1006.83 1127.92 1006.6 1127.14 1006.6C1126.51 1006.6 1125.97 1006.7 1125.51 1006.89C1125.06 1007.08 1124.68 1007.36 1124.38 1007.71C1124.07 1008.06 1123.84 1008.48 1123.68 1008.96C1123.54 1009.42 1123.47 1009.93 1123.47 1010.49V1017.5H1121.43V1005.09ZM1145.47 1016.44C1145.47 1018.48 1145 1020 1144.07 1021C1143.15 1022.01 1141.69 1022.52 1139.71 1022.52C1139.13 1022.52 1138.54 1022.45 1137.93 1022.32C1137.34 1022.2 1136.79 1021.99 1136.3 1021.7C1135.82 1021.41 1135.42 1021.04 1135.1 1020.57C1134.78 1020.11 1134.6 1019.54 1134.57 1018.87H1136.61C1136.63 1019.24 1136.74 1019.55 1136.95 1019.8C1137.17 1020.06 1137.43 1020.27 1137.74 1020.43C1138.06 1020.59 1138.4 1020.7 1138.77 1020.76C1139.14 1020.84 1139.49 1020.88 1139.83 1020.88C1140.5 1020.88 1141.07 1020.76 1141.53 1020.52C1141.99 1020.3 1142.38 1019.98 1142.68 1019.56C1142.99 1019.16 1143.2 1018.68 1143.33 1018.1C1143.47 1017.52 1143.55 1016.89 1143.55 1016.2V1015.39H1143.5C1143.15 1016.16 1142.61 1016.72 1141.89 1017.09C1141.19 1017.44 1140.43 1017.62 1139.63 1017.62C1138.71 1017.62 1137.9 1017.45 1137.21 1017.12C1136.52 1016.78 1135.95 1016.33 1135.48 1015.77C1135.02 1015.2 1134.67 1014.53 1134.43 1013.78C1134.2 1013.01 1134.09 1012.2 1134.09 1011.36C1134.09 1010.62 1134.19 1009.87 1134.38 1009.1C1134.57 1008.32 1134.89 1007.61 1135.34 1006.99C1135.79 1006.35 1136.38 1005.83 1137.11 1005.43C1137.85 1005.01 1138.75 1004.8 1139.83 1004.8C1140.61 1004.8 1141.33 1004.98 1141.99 1005.33C1142.64 1005.67 1143.15 1006.18 1143.52 1006.87H1143.55V1005.09H1145.47V1016.44ZM1139.75 1015.84C1140.43 1015.84 1140.99 1015.71 1141.46 1015.44C1141.94 1015.15 1142.32 1014.78 1142.61 1014.33C1142.9 1013.87 1143.11 1013.35 1143.23 1012.77C1143.38 1012.2 1143.45 1011.62 1143.45 1011.04C1143.45 1010.5 1143.39 1009.96 1143.26 1009.44C1143.13 1008.91 1142.92 1008.44 1142.63 1008.02C1142.36 1007.59 1142 1007.24 1141.55 1006.99C1141.11 1006.73 1140.56 1006.6 1139.92 1006.6C1139.27 1006.6 1138.71 1006.73 1138.24 1006.99C1137.78 1007.23 1137.39 1007.56 1137.09 1007.97C1136.8 1008.39 1136.59 1008.87 1136.44 1009.41C1136.31 1009.96 1136.25 1010.52 1136.25 1011.12C1136.25 1011.68 1136.31 1012.24 1136.42 1012.8C1136.53 1013.36 1136.72 1013.87 1136.99 1014.33C1137.27 1014.78 1137.63 1015.15 1138.07 1015.44C1138.52 1015.71 1139.08 1015.84 1139.75 1015.84ZM1158.82 1017.5H1156.9V1015.53H1156.85C1156.42 1016.3 1155.86 1016.87 1155.19 1017.24C1154.52 1017.59 1153.73 1017.76 1152.82 1017.76C1152 1017.76 1151.32 1017.66 1150.78 1017.45C1150.23 1017.23 1149.79 1016.92 1149.46 1016.52C1149.12 1016.12 1148.88 1015.64 1148.74 1015.1C1148.61 1014.54 1148.54 1013.92 1148.54 1013.25V1005.09H1150.58V1013.49C1150.58 1014.26 1150.81 1014.87 1151.26 1015.32C1151.7 1015.76 1152.32 1015.99 1153.1 1015.99C1153.73 1015.99 1154.26 1015.89 1154.71 1015.7C1155.18 1015.51 1155.56 1015.24 1155.86 1014.88C1156.17 1014.53 1156.39 1014.12 1156.54 1013.66C1156.7 1013.18 1156.78 1012.66 1156.78 1012.1V1005.09H1158.82V1017.5ZM1172.87 1017.45C1172.52 1017.66 1172.03 1017.76 1171.41 1017.76C1170.88 1017.76 1170.46 1017.62 1170.14 1017.33C1169.83 1017.03 1169.68 1016.54 1169.68 1015.87C1169.12 1016.54 1168.46 1017.03 1167.71 1017.33C1166.98 1017.62 1166.18 1017.76 1165.31 1017.76C1164.75 1017.76 1164.22 1017.7 1163.7 1017.57C1163.21 1017.44 1162.78 1017.24 1162.41 1016.97C1162.04 1016.7 1161.74 1016.35 1161.52 1015.92C1161.31 1015.47 1161.21 1014.93 1161.21 1014.31C1161.21 1013.6 1161.33 1013.03 1161.57 1012.58C1161.81 1012.13 1162.12 1011.77 1162.5 1011.5C1162.9 1011.21 1163.35 1011 1163.85 1010.85C1164.36 1010.71 1164.88 1010.59 1165.41 1010.49C1165.97 1010.38 1166.5 1010.3 1166.99 1010.25C1167.5 1010.19 1167.95 1010.11 1168.34 1010.01C1168.72 1009.9 1169.02 1009.75 1169.25 1009.56C1169.47 1009.35 1169.58 1009.05 1169.58 1008.67C1169.58 1008.22 1169.5 1007.86 1169.32 1007.59C1169.16 1007.32 1168.94 1007.11 1168.67 1006.96C1168.42 1006.82 1168.12 1006.72 1167.78 1006.68C1167.46 1006.63 1167.14 1006.6 1166.82 1006.6C1165.96 1006.6 1165.24 1006.77 1164.66 1007.11C1164.09 1007.43 1163.78 1008.04 1163.73 1008.96H1161.69C1161.72 1008.19 1161.88 1007.54 1162.17 1007.01C1162.46 1006.48 1162.84 1006.06 1163.32 1005.74C1163.8 1005.4 1164.34 1005.16 1164.95 1005.02C1165.58 1004.88 1166.24 1004.8 1166.94 1004.8C1167.5 1004.8 1168.06 1004.84 1168.6 1004.92C1169.16 1005 1169.66 1005.17 1170.11 1005.43C1170.56 1005.67 1170.92 1006.01 1171.19 1006.46C1171.46 1006.91 1171.6 1007.49 1171.6 1008.21V1014.6C1171.6 1015.08 1171.62 1015.43 1171.67 1015.65C1171.74 1015.88 1171.93 1015.99 1172.25 1015.99C1172.42 1015.99 1172.63 1015.95 1172.87 1015.87V1017.45ZM1169.56 1011.09C1169.3 1011.28 1168.97 1011.43 1168.55 1011.52C1168.14 1011.6 1167.7 1011.68 1167.23 1011.74C1166.78 1011.79 1166.33 1011.85 1165.86 1011.93C1165.4 1012 1164.98 1012.11 1164.62 1012.27C1164.25 1012.43 1163.94 1012.66 1163.7 1012.96C1163.48 1013.25 1163.37 1013.65 1163.37 1014.16C1163.37 1014.5 1163.43 1014.79 1163.56 1015.03C1163.7 1015.25 1163.88 1015.44 1164.09 1015.58C1164.31 1015.72 1164.57 1015.83 1164.86 1015.89C1165.14 1015.96 1165.45 1015.99 1165.77 1015.99C1166.44 1015.99 1167.02 1015.9 1167.5 1015.72C1167.98 1015.53 1168.37 1015.3 1168.67 1015.03C1168.98 1014.74 1169.2 1014.44 1169.34 1014.12C1169.49 1013.78 1169.56 1013.47 1169.56 1013.18V1011.09ZM1185.47 1016.44C1185.47 1018.48 1185.01 1020 1184.08 1021C1183.15 1022.01 1181.7 1022.52 1179.71 1022.52C1179.14 1022.52 1178.55 1022.45 1177.94 1022.32C1177.35 1022.2 1176.8 1021.99 1176.31 1021.7C1175.83 1021.41 1175.43 1021.04 1175.11 1020.57C1174.79 1020.11 1174.61 1019.54 1174.58 1018.87H1176.62C1176.63 1019.24 1176.75 1019.55 1176.95 1019.8C1177.18 1020.06 1177.44 1020.27 1177.75 1020.43C1178.07 1020.59 1178.41 1020.7 1178.78 1020.76C1179.15 1020.84 1179.5 1020.88 1179.83 1020.88C1180.51 1020.88 1181.07 1020.76 1181.54 1020.52C1182 1020.3 1182.39 1019.98 1182.69 1019.56C1182.99 1019.16 1183.21 1018.68 1183.34 1018.1C1183.48 1017.52 1183.55 1016.89 1183.55 1016.2V1015.39H1183.51C1183.15 1016.16 1182.62 1016.72 1181.9 1017.09C1181.19 1017.44 1180.44 1017.62 1179.64 1017.62C1178.71 1017.62 1177.91 1017.45 1177.22 1017.12C1176.53 1016.78 1175.95 1016.33 1175.49 1015.77C1175.03 1015.2 1174.67 1014.53 1174.43 1013.78C1174.21 1013.01 1174.1 1012.2 1174.1 1011.36C1174.1 1010.62 1174.19 1009.87 1174.39 1009.1C1174.58 1008.32 1174.9 1007.61 1175.35 1006.99C1175.79 1006.35 1176.39 1005.83 1177.12 1005.43C1177.86 1005.01 1178.76 1004.8 1179.83 1004.8C1180.62 1004.8 1181.34 1004.98 1181.99 1005.33C1182.65 1005.67 1183.16 1006.18 1183.53 1006.87H1183.55V1005.09H1185.47V1016.44ZM1179.76 1015.84C1180.43 1015.84 1181 1015.71 1181.47 1015.44C1181.95 1015.15 1182.33 1014.78 1182.62 1014.33C1182.91 1013.87 1183.11 1013.35 1183.24 1012.77C1183.39 1012.2 1183.46 1011.62 1183.46 1011.04C1183.46 1010.5 1183.39 1009.96 1183.27 1009.44C1183.14 1008.91 1182.93 1008.44 1182.64 1008.02C1182.37 1007.59 1182.01 1007.24 1181.56 1006.99C1181.11 1006.73 1180.57 1006.6 1179.93 1006.6C1179.27 1006.6 1178.71 1006.73 1178.25 1006.99C1177.79 1007.23 1177.4 1007.56 1177.1 1007.97C1176.81 1008.39 1176.59 1008.87 1176.45 1009.41C1176.32 1009.96 1176.26 1010.52 1176.26 1011.12C1176.26 1011.68 1176.31 1012.24 1176.43 1012.8C1176.54 1013.36 1176.73 1013.87 1177 1014.33C1177.27 1014.78 1177.63 1015.15 1178.08 1015.44C1178.53 1015.71 1179.09 1015.84 1179.76 1015.84ZM1197.17 1010.11C1197.14 1009.63 1197.02 1009.17 1196.83 1008.74C1196.66 1008.31 1196.41 1007.94 1196.09 1007.64C1195.78 1007.32 1195.42 1007.07 1194.98 1006.89C1194.57 1006.7 1194.1 1006.6 1193.59 1006.6C1193.06 1006.6 1192.58 1006.7 1192.15 1006.89C1191.74 1007.07 1191.38 1007.32 1191.07 1007.64C1190.77 1007.96 1190.53 1008.33 1190.35 1008.76C1190.18 1009.18 1190.07 1009.63 1190.04 1010.11H1197.17ZM1199.14 1013.56C1198.86 1014.96 1198.26 1016 1197.34 1016.71C1196.41 1017.41 1195.24 1017.76 1193.83 1017.76C1192.84 1017.76 1191.98 1017.6 1191.24 1017.28C1190.52 1016.96 1189.91 1016.52 1189.42 1015.94C1188.92 1015.36 1188.54 1014.68 1188.29 1013.88C1188.05 1013.08 1187.91 1012.2 1187.88 1011.26C1187.88 1010.32 1188.02 1009.45 1188.31 1008.67C1188.6 1007.88 1189 1007.2 1189.51 1006.63C1190.04 1006.05 1190.66 1005.6 1191.36 1005.28C1192.08 1004.96 1192.86 1004.8 1193.71 1004.8C1194.82 1004.8 1195.73 1005.04 1196.45 1005.5C1197.18 1005.95 1197.77 1006.52 1198.2 1007.23C1198.65 1007.93 1198.95 1008.7 1199.11 1009.53C1199.29 1010.36 1199.36 1011.16 1199.33 1011.91H1190.04C1190.02 1012.45 1190.09 1012.97 1190.23 1013.47C1190.38 1013.95 1190.61 1014.38 1190.93 1014.76C1191.25 1015.13 1191.66 1015.43 1192.15 1015.65C1192.65 1015.88 1193.23 1015.99 1193.9 1015.99C1194.77 1015.99 1195.47 1015.79 1196.02 1015.39C1196.58 1014.99 1196.94 1014.38 1197.12 1013.56H1199.14ZM1201.9 1014.84H1204.56V1017.5H1201.9V1014.84Z" fill="white"/>
<path d="M962.906 649.39H926.615L922.427 418.894H921.962L870.316 649.39H833.559L822.16 326.696H858.684L861.011 563.067H861.476L914.052 326.696H948.948L953.135 562.163H953.601L1004.32 326.696H1040.84L962.906 649.39Z" fill="#ECFFF0"/>
<path d="M629.817 326.379H680.3L693.095 560.038H693.56L757.536 326.379H808.483L773.355 649.073H739.157L769.4 392.364H768.935L698.678 649.073H670.761L654.709 392.364H654.244L629.352 649.073H594.922L629.817 326.379Z" fill="#ECFFF0"/>
<path d="M423.16 513.939C423.16 487.726 425.254 462.869 429.441 439.367C433.629 415.866 439.6 395.226 447.354 377.45C455.264 359.371 464.802 345.06 475.969 334.514C487.291 323.969 499.931 318.696 513.889 318.696C525.056 318.696 535.214 321.709 544.365 327.735C553.515 333.46 561.27 342.197 567.628 353.948C573.987 365.699 578.872 380.161 582.285 397.335C585.852 414.51 587.635 434.396 587.635 456.993C587.635 483.508 585.619 508.817 581.587 532.921C577.554 557.025 571.661 578.267 563.906 596.647C556.307 615.026 546.846 629.639 535.524 640.486C524.358 651.032 511.485 656.304 496.906 656.304C473.332 656.304 455.109 644.102 442.236 619.696C429.519 595.291 423.16 560.038 423.16 513.939ZM459.684 513.939C459.684 525.087 460.382 535.633 461.778 545.576C463.329 555.519 465.578 564.407 468.525 572.241C471.626 579.774 475.504 585.8 480.156 590.319C484.964 594.839 490.703 597.099 497.372 597.099C506.367 597.099 514.199 593.031 520.868 584.896C527.537 576.459 533.12 565.763 537.618 552.807C542.116 539.55 545.45 524.937 547.621 508.968C549.948 492.999 551.111 477.331 551.111 461.965C551.111 450.515 550.413 439.819 549.017 429.876C547.777 419.632 545.683 410.743 542.736 403.211C539.789 395.678 535.99 389.652 531.337 385.133C526.684 380.613 520.946 378.353 514.122 378.353C504.816 378.353 496.674 382.572 489.695 391.008C482.871 399.143 477.21 409.84 472.712 423.097C468.369 436.053 465.113 450.666 462.941 466.936C460.77 482.905 459.684 498.573 459.684 513.939Z" fill="#ECFFF0"/>
<path d="M620.993 726.976C618.753 726.976 616.753 726.624 614.993 725.92C613.265 725.216 611.793 724.24 610.577 722.992C609.393 721.712 608.481 720.176 607.841 718.384C607.233 716.592 606.929 714.608 606.929 712.432C606.929 709.68 607.345 707.04 608.177 704.512C609.009 701.984 610.225 699.744 611.825 697.792C613.425 695.808 615.377 694.24 617.681 693.088C619.985 691.904 622.609 691.312 625.553 691.312C627.729 691.312 629.697 691.664 631.457 692.368C633.217 693.04 634.705 694 635.921 695.248C637.169 696.496 638.113 698 638.753 699.76C639.425 701.52 639.761 703.488 639.761 705.664C639.761 708.448 639.345 711.136 638.513 713.728C637.713 716.288 636.513 718.56 634.913 720.544C633.313 722.496 631.345 724.064 629.009 725.248C626.705 726.4 624.033 726.976 620.993 726.976ZM636.497 706.48C636.497 704.688 636.273 703.04 635.825 701.536C635.409 700.032 634.737 698.736 633.809 697.648C632.913 696.528 631.777 695.664 630.401 695.056C629.025 694.416 627.393 694.096 625.505 694.096C622.913 694.096 620.657 694.64 618.737 695.728C616.849 696.784 615.265 698.192 613.985 699.952C612.705 701.68 611.745 703.664 611.105 705.904C610.497 708.112 610.193 710.384 610.193 712.72C610.193 714.48 610.449 716.064 610.961 717.472C611.473 718.88 612.209 720.096 613.169 721.12C614.161 722.112 615.361 722.88 616.769 723.424C618.177 723.968 619.761 724.24 621.521 724.24C623.857 724.24 625.937 723.712 627.761 722.656C629.617 721.6 631.185 720.24 632.465 718.576C633.777 716.88 634.769 714.976 635.441 712.864C636.145 710.72 636.497 708.592 636.497 706.48ZM645.675 701.536H648.459L647.595 706.048H647.691C648.619 704.576 649.851 703.344 651.387 702.352C652.955 701.328 654.667 700.816 656.523 700.816C657.611 700.816 658.603 700.944 659.499 701.2C660.427 701.456 661.227 701.856 661.899 702.4C662.571 702.912 663.083 703.6 663.435 704.464C663.819 705.296 664.011 706.304 664.011 707.488C664.011 708.16 663.883 709.136 663.627 710.416L660.219 726.304H657.195L660.651 710.32C660.747 709.936 660.827 709.536 660.891 709.12C660.955 708.672 660.987 708.24 660.987 707.824C660.987 706.992 660.843 706.304 660.555 705.76C660.267 705.184 659.883 704.72 659.403 704.368C658.923 704.016 658.363 703.76 657.723 703.6C657.115 703.44 656.475 703.36 655.803 703.36C654.715 703.36 653.659 703.6 652.635 704.08C651.611 704.56 650.667 705.248 649.803 706.144C648.939 707.008 648.187 708.08 647.547 709.36C646.907 710.608 646.427 712.016 646.107 713.584L643.371 726.304H640.395L645.675 701.536ZM687.552 692.032H692.304L697.632 722.8L716.448 692.032H721.2L713.856 726.304H710.64L717.696 695.296H717.6L698.64 726.304H695.376L689.856 694.816H689.76L683.28 726.304H680.112L687.552 692.032ZM718.875 732.736C719.739 732.832 720.587 732.88 721.419 732.88C722.347 732.88 723.131 732.592 723.771 732.016C724.411 731.44 724.923 730.832 725.307 730.192L727.563 726.304L723.003 701.536H726.171L729.723 722.56H729.819L741.243 701.536H744.507L726.891 732.112C725.611 734.32 723.611 735.424 720.891 735.424C720.475 735.424 720.059 735.392 719.643 735.328C719.195 735.264 718.747 735.216 718.299 735.184L718.875 732.736ZM759.877 692.032H763.141L764.917 722.512H765.013L779.605 692.032H783.541L785.893 722.224H785.989L800.005 692.032H803.413L786.901 726.304H783.349L781.093 695.152H780.997L766.021 726.304H762.421L759.877 692.032ZM801.21 708.928C801.402 707.52 801.802 706.304 802.41 705.28C803.05 704.256 803.834 703.424 804.762 702.784C805.69 702.112 806.746 701.616 807.93 701.296C809.114 700.976 810.362 700.816 811.674 700.816C812.506 700.816 813.418 700.896 814.41 701.056C815.434 701.216 816.378 701.504 817.242 701.92C818.106 702.336 818.826 702.896 819.402 703.6C819.978 704.304 820.266 705.216 820.266 706.336C820.266 706.944 820.202 707.616 820.074 708.352C819.978 709.088 819.85 709.84 819.69 710.608C819.53 711.344 819.354 712.08 819.162 712.816C819.002 713.52 818.858 714.144 818.73 714.688C818.442 716.064 818.186 717.216 817.962 718.144C817.77 719.04 817.61 719.792 817.482 720.4C817.354 721.008 817.258 721.504 817.194 721.888C817.13 722.272 817.098 722.656 817.098 723.04C817.098 723.488 817.274 723.776 817.626 723.904C817.978 724 818.33 724.048 818.682 724.048C818.906 724.048 819.098 724.048 819.258 724.048C819.45 724.016 819.658 723.984 819.882 723.952L819.45 726.304C818.65 726.464 817.818 726.544 816.954 726.544C815.258 726.544 814.378 725.664 814.314 723.904C814.314 723.68 814.314 723.456 814.314 723.232C814.346 723.008 814.378 722.784 814.41 722.56L814.314 722.464C813.45 723.904 812.234 725.024 810.666 725.824C809.098 726.592 807.45 726.976 805.722 726.976C804.57 726.976 803.514 726.848 802.554 726.592C801.594 726.336 800.762 725.936 800.058 725.392C799.386 724.848 798.842 724.144 798.426 723.28C798.042 722.416 797.85 721.376 797.85 720.16C797.85 718.848 798.074 717.744 798.522 716.848C799.002 715.952 799.642 715.216 800.442 714.64C801.242 714.064 802.154 713.616 803.178 713.296C804.202 712.944 805.274 712.672 806.394 712.48C808.026 712.224 809.498 712.112 810.81 712.144C812.154 712.144 813.306 712.016 814.266 711.76C815.258 711.504 815.994 711.04 816.474 710.368C816.986 709.696 817.242 708.544 817.242 706.912C817.242 706.176 817.066 705.584 816.714 705.136C816.394 704.656 815.978 704.288 815.466 704.032C814.986 703.776 814.426 703.6 813.786 703.504C813.178 703.408 812.586 703.36 812.01 703.36C811.05 703.36 810.138 703.456 809.274 703.648C808.41 703.84 807.626 704.16 806.922 704.608C806.218 705.024 805.626 705.6 805.146 706.336C804.698 707.04 804.394 707.904 804.234 708.928H801.21ZM816.186 713.056L816.09 712.96C815.834 713.248 815.466 713.488 814.986 713.68C814.538 713.84 814.058 713.968 813.546 714.064C813.034 714.16 812.506 714.224 811.962 714.256C811.45 714.288 811.002 714.32 810.618 714.352C809.69 714.416 808.65 714.512 807.498 714.64C806.378 714.736 805.322 714.976 804.33 715.36C803.338 715.712 802.506 716.256 801.834 716.992C801.162 717.696 800.826 718.704 800.826 720.016C800.826 720.816 800.97 721.504 801.258 722.08C801.578 722.624 801.994 723.088 802.506 723.472C803.018 723.824 803.61 724.08 804.282 724.24C804.954 724.4 805.642 724.48 806.346 724.48C808.778 724.48 810.746 723.824 812.25 722.512C813.754 721.2 814.746 719.44 815.226 717.232L816.186 713.056ZM821.109 732.736C821.973 732.832 822.821 732.88 823.653 732.88C824.581 732.88 825.365 732.592 826.005 732.016C826.645 731.44 827.157 730.832 827.541 730.192L829.797 726.304L825.237 701.536H828.405L831.957 722.56H832.053L843.477 701.536H846.741L829.125 732.112C827.845 734.32 825.845 735.424 823.125 735.424C822.709 735.424 822.293 735.392 821.877 735.328C821.429 735.264 820.981 735.216 820.533 735.184L821.109 732.736ZM849.376 717.76L851.92 702.688L854.224 692.032H857.44L855.136 702.736L851.2 717.76H849.376ZM846.448 726.304L847.552 721.216H851.632L850.48 726.304H846.448Z" fill="#ECFFF0"/>
</svg>
